<svg height="511pt" viewBox="-148 1 511 511.999" width="511pt" xmlns="http://www.w3.org/2000/svg"><path d="m107.6875 104.066406h45.789062v-37.464844h-91.578124v37.464844zm0 0" fill="#ddf5ff"/><path d="m129.539062 66.601562v37.464844h23.9375v-37.464844s-11.992187 0-23.9375 0zm0 0" fill="#c1e9f4"/><path d="m153.476562 104.066406 30.816407 18.28125c18.957031 11.246094 30.582031 31.65625 30.582031 53.699219v49.773437c0 2.875-2.332031 5.203126-5.203125 5.203126-2.875 0-5.203125 2.332031-5.203125 5.203124v34.34375c0 2.871094 2.328125 5.203126 5.203125 5.203126s5.203125 2.328124 5.203125 5.203124v189.394532c0 22.992187-18.636719 41.628906-41.625 41.628906h-131.125c-22.988281 0-41.625-18.636719-41.625-41.628906v-189.394532c0-2.875 2.328125-5.203124 5.203125-5.203124s5.203125-2.332032 5.203125-5.203126v-34.339843c0-2.875-2.332031-5.203125-5.203125-5.203125-2.875 0-5.203125-2.332032-5.203125-5.203125v-49.777344c0-22.042969 11.625-42.453125 30.582031-53.699219l30.816407-18.28125zm0 0" fill="#81b8fd"/><path d="m209.671875 231.023438c2.871094 0 5.203125-2.328126 5.203125-5.203126v-49.773437c0-22.042969-11.625-42.453125-30.585938-53.703125l-30.816406-18.28125h-23.933594l30.816407 18.28125c18.960937 11.25 30.582031 31.660156 30.582031 53.703125v49.773437c0 2.875-2.328125 5.203126-5.203125 5.203126-2.871094 0-5.203125 2.332031-5.203125 5.203124v34.339844c0 2.875 2.332031 5.203125 5.203125 5.203125 2.875 0 5.203125 2.332031 5.203125 5.203125v189.398438c0 22.988281-18.636719 41.625-41.625 41.625h23.933594c22.988281 0 41.625-18.636719 41.625-41.625v-189.394532c0-2.875-2.328125-5.203124-5.203125-5.203124-2.871094 0-5.203125-2.332032-5.203125-5.203126v-34.339843c0-2.875 2.332031-5.207031 5.207031-5.207031zm0 0" fill="#62a6fd"/><path d="m209.671875 231.023438c2.871094 0 5.203125-2.328126 5.203125-5.203126v-36.421874h-23.9375v36.421874c0 2.875-2.328125 5.203126-5.203125 5.203126-2.871094 0-5.203125 2.332031-5.203125 5.203124v34.339844c0 2.875 2.332031 5.203125 5.203125 5.203125 2.875 0 5.203125 2.332031 5.203125 5.203125v41.628906h23.9375v-41.628906c0-2.871094-2.332031-5.203125-5.203125-5.203125-2.875 0-5.203125-2.328125-5.203125-5.203125v-34.339844c-.003906-2.871093 2.328125-5.203124 5.203125-5.203124zm0 0" fill="#62a6fd"/><path d="m209.671875 231.023438c2.871094 0 5.203125-2.328126 5.203125-5.203126v-36.421874h-214.375v36.421874c0 2.875 2.328125 5.203126 5.203125 5.203126 2.871094 0 5.203125 2.332031 5.203125 5.203124v34.339844c0 2.875-2.332031 5.203125-5.203125 5.203125-2.875 0-5.203125 2.332031-5.203125 5.203125v41.628906h214.375v-41.628906c0-2.871094-2.332031-5.203125-5.203125-5.203125-2.875 0-5.203125-2.328125-5.203125-5.203125v-34.339844c-.003906-2.871093 2.328125-5.203124 5.203125-5.203124zm0 0" fill="#ddf5ff"/><path d="m209.566406 231.023438c2.902344-.054688 5.308594-2.226563 5.308594-5.132813v-36.492187h-23.9375v36.492187c0 2.90625-2.402344 5.078125-5.308594 5.132813-2.824218.058593-5.097656 2.367187-5.097656 5.203124v34.414063c0 2.902344 2.40625 5.074219 5.308594 5.132813 2.828125.054687 5.097656 2.363281 5.097656 5.203124v19.839844c0 5.523438-4.476562 10-10 10h-180.4375v11.785156h214.375v-41.695312c0-2.90625-2.40625-5.078125-5.308594-5.136719-2.828125-.054687-5.097656-2.363281-5.097656-5.199219v-34.34375c0-2.835937 2.269531-5.144531 5.097656-5.203124zm0 0" fill="#c1e9f4"/><path d="m151.394531 66.601562h-87.417969c-5.746093 0-10.40625-4.660156-10.40625-10.40625v-45.789062c.003907-5.746094 4.660157-10.40625 10.410157-10.40625h87.414062c5.746094 0 10.40625 4.660156 10.40625 10.40625v45.789062c0 5.746094-4.660156 10.40625-10.40625 10.40625zm0 0" fill="#81b8fd"/><path d="m145.148438 0v39.546875c0 5.746094-4.65625 10.40625-10.40625 10.40625h-81.167969v6.242187c0 5.746094 4.65625 10.40625 10.40625 10.40625h87.414062c5.746094 0 10.40625-4.65625 10.40625-10.40625v-45.789062c0-5.746094-4.660156-10.40625-10.40625-10.40625zm0 0" fill="#62a6fd"/><path d="m136.824219 268.488281c0 16.023438-13.113281 29.136719-29.136719 29.136719s-29.140625-13.113281-29.140625-29.136719c0-11.859375 15.960937-35.804687 24.257813-47.449219 2.390624-3.359374 7.371093-3.359374 9.765624 0 8.296876 11.644532 24.253907 35.589844 24.253907 47.449219zm0 0" fill="#81b8fd"/></svg>