<?xml version="1.0"?>
<svg xmlns="http://www.w3.org/2000/svg" height="512px" viewBox="-2 0 464 464" width="512px" class=""><g><path d="m276.921875 99.199219c.800781-2.398438 1.601563-4.800781 1.601563-7.199219v-34.398438c0-6.402343-3.203126-12-8.800782-14.402343l-23.199218-11.199219v-32h-32v32l-23.203126 11.199219c-5.597656 2.402343-8.796874 8-8.796874 14.402343v34.398438c0 2.398438.796874 4.800781 1.597656 7.199219l6.402344 12.800781v32l-7.203126 21.601562c-.796874 1.597657-.796874 3.199219-.796874 4.796876v21.601562h96v-21.601562c0-1.597657 0-3.199219-.800782-4.796876l-7.199218-21.601562v-32zm0 0" fill="#edc17c" data-original="#EDC17C" class="" data-old_color="#edc17c" style="fill:#7CEBED"/><path d="m214.523438 0h32v32h-32zm0 0" fill="#5da364" data-original="#5DA364" class="active-path" data-old_color="#5da364" style="fill:#5D7AA3"/><path d="m190.523438 112h80v32h-80zm0 0" fill="#538457" data-original="#538457" class="" data-old_color="#538457" style="fill:#536884"/><path d="m182.523438 64h96v-6.398438c0-6.402343-3.203126-12-8.800782-14.402343l-23.199218-11.199219h-32l-23.203126 11.199219c-5.597656 2.402343-8.796874 8-8.796874 14.402343zm0 0" fill="#ddad6f" data-original="#DDAD6F" class="" data-old_color="#ddad6f" style="fill:#6FDDDA"/><path d="m30.523438 216v232c0 8.800781 7.199218 16 16 16h368c8.796874 0 16-7.199219 16-16v-232c0-13.601562-10.402344-24-24-24h-352c-13.601563 0-24 10.398438-24 24zm0 0" fill="#e2c8ac" data-original="#E2C8AC" class=""/><path d="m302.523438 192v272h120c4.796874 0 8-3.199219 8-8v-240c0-13.601562-10.402344-24-24-24zm0 0" fill="#ceb195" data-original="#CEB195" class=""/><path d="m459.320312 264.800781-32-64c-2.398437-5.601562-8-8.800781-14.398437-8.800781h-110.398437l43.199218 87.199219c2.398438 5.601562 8 8.800781 14.398438 8.800781h84c8.800781 0 16-7.199219 16-16 .800781-2.398438 0-4.800781-.800782-7.199219zm0 0" fill="#e2c8ac" data-original="#E2C8AC" class=""/><path d="m48.121094 192c-6.398438 0-12 3.199219-14.398438 8.800781l-32 64c-4 8-.800781 17.597657 7.199219 21.597657 2.398437.800781 4.800781 1.601562 7.199219 1.601562h228c6.402344 0 12-3.199219 14.402344-8.800781l44-87.199219zm0 0" fill="#ceb195" data-original="#CEB195" class=""/><path d="m404.921875 99.199219c.800781-2.398438 1.601563-4.800781 1.601563-7.199219v-34.398438c0-6.402343-3.203126-12-8.800782-14.402343l-23.199218-11.199219v-32h-32v32l-23.203126 11.199219c-5.597656 2.402343-8.796874 8-8.796874 14.402343v34.398438c0 2.398438.796874 4.800781 1.597656 7.199219l6.402344 12.800781v32l-7.203126 21.601562c-.796874 1.597657-.796874 3.199219-.796874 4.796876v21.601562h96v-21.601562c0-1.597657 0-3.199219-.800782-4.796876l-7.199218-21.601562v-32zm0 0" fill="#edc17c" data-original="#EDC17C" class="" data-old_color="#edc17c" style="fill:#7CEBED"/><path d="m342.523438 0h32v32h-32zm0 0" fill="#5da364" data-original="#5DA364" class="active-path" data-old_color="#5da364" style="fill:#5D7AA3"/><path d="m318.523438 112h80v32h-80zm0 0" fill="#538457" data-original="#538457" class="" data-old_color="#538457" style="fill:#536884"/><path d="m310.523438 64h96v-6.398438c0-6.402343-3.203126-12-8.800782-14.402343l-23.199218-11.199219h-32l-23.203126 11.199219c-5.597656 2.402343-8.796874 8-8.796874 14.402343zm0 0" fill="#ddad6f" data-original="#DDAD6F" class="" data-old_color="#ddad6f" style="fill:#6FDDDA"/><path d="m148.921875 192-3.199219-12.800781c-.800781-1.597657-.800781-3.199219-2.402344-4.800781l-12.796874-19.199219-8-31.199219 3.199218-13.601562c.800782-2.398438.800782-4.796876 0-7.199219l-8.800781-33.597657c-1.601563-5.601562-6.398437-10.402343-12-11.203124l-26.398437-5.597657-8-31.199219-31.203126 8 8 31.199219-19.199218 16.800781c-4.800782 4-6.398438 10.398438-4.800782 16l8.800782 33.597657c.800781 2.402343 1.601562 4.800781 3.199218 6.402343l9.601563 10.398438 8 31.199219-.800781 16.800781zm0 0" fill="#edc17c" data-original="#EDC17C" class="" data-old_color="#edc17c" style="fill:#7CEBED"/><path d="m39.777344 30.1875 30.945312-8.15625 8.15625 30.945312-30.945312 8.15625zm0 0" fill="#5da364" data-original="#5DA364" class="active-path" data-old_color="#5da364" style="fill:#5D7AA3"/><path d="m45.285156 144.253906 77.363282-20.390625 8.15625 30.941407-77.359376 20.394531zm0 0" fill="#538457" data-original="#538457" class="" data-old_color="#538457" style="fill:#536884"/><g fill="#ceb195"><path d="m62.523438 384h16v48h-16zm0 0" data-original="#CEB195" class=""/><path d="m94.523438 384h16v48h-16zm0 0" data-original="#CEB195" class=""/><path d="m126.523438 384h16v48h-16zm0 0" data-original="#CEB195" class=""/><path d="m158.523438 384h16v48h-16zm0 0" data-original="#CEB195" class=""/></g><path d="m28.121094 78.398438c-4.800782 4-6.398438 10.402343-4.800782 16l1.601563 5.601562 92.800781-24.800781-1.601562-7.199219c-1.597656-5.601562-6.398438-9.601562-12-10.398438l-25.597656-4.800781-31.203126 8zm0 0" fill="#ddad6f" data-original="#DDAD6F" class="" data-old_color="#ddad6f" style="fill:#6FDDDA"/></g> </svg>
