<svg id="Layer_1" data-name="Layer 1" xmlns="http://www.w3.org/2000/svg" xmlns:xlink="http://www.w3.org/1999/xlink" viewBox="0 0 936 1848.03"><defs><style>.cls-1{fill:url(#linear-gradient);}.cls-2{fill:url(#linear-gradient-8);}.cls-3{fill:url(#linear-gradient-9);}.cls-4{fill:url(#linear-gradient-10);}.cls-5{fill:url(#New_Gradient_Swatch_1);}.cls-6{fill:url(#linear-gradient-11);}.cls-7{fill:url(#linear-gradient-12);}</style><linearGradient id="linear-gradient" x1="576" y1="1786.62" x2="1512" y2="1786.62" gradientUnits="userSpaceOnUse"><stop offset="0" stop-color="#4bdc4b"/><stop offset="1" stop-color="#148c14"/></linearGradient><linearGradient id="linear-gradient-8" x1="391.26" y1="-16.07" x2="544.74" y2="232.07" xlink:href="#linear-gradient"/><linearGradient id="linear-gradient-9" x1="1403.79" y1="881.95" x2="1404.19" y2="881.95" gradientUnits="userSpaceOnUse"><stop offset="0" stop-color="#148c14"/><stop offset="1" stop-color="#4bdc4b"/></linearGradient><linearGradient id="linear-gradient-10" x1="1506.31" y1="757.65" x2="1507.15" y2="757.65" xlink:href="#linear-gradient-9"/><linearGradient id="New_Gradient_Swatch_1" x1="546.95" y1="866.32" x2="1037.32" y2="1356.68" xlink:href="#linear-gradient"/><linearGradient id="linear-gradient-11" x1="787.63" y1="1732.37" x2="1633.36" y2="886.64" gradientUnits="userSpaceOnUse"><stop offset="0" stop-color="#4bdc4b"/><stop offset="0.26" stop-color="#49d949"/><stop offset="0.47" stop-color="#42cf42"/><stop offset="0.67" stop-color="#36be36"/><stop offset="0.85" stop-color="#26a626"/><stop offset="1" stop-color="#148c14"/></linearGradient><linearGradient id="linear-gradient-12" x1="576" y1="621" x2="1508" y2="621" xlink:href="#linear-gradient-9"/></defs><title>farazist</title><path class="cls-1" d="M804.65,1791.86q1.67,7,1.68,21.42,0,14.67-1.84,21.56t-6.42,6.88q-15.3,0-26.92-5.5t-16.82-15.91h-3.06q-17.13,23.25-90.24,23.25-19,0-42-1.68t-43-5.05a386.49,386.49,0,0,1,10.4-56,486.85,486.85,0,0,0,82.59,6.73q26.91,0,43.43-3.36t24.93-11.17q8.42-7.8,10.25-21.26h25.08q0,17.45,6.12,25.24t19.27,7.8Q803,1784.83,804.65,1791.86Zm-97.43-42.51q-7.34,10.39-12.54,14.07A92.49,92.49,0,0,1,680,1755q-8.88-6-13.15-10.86a72.25,72.25,0,0,1-8,11.31,47.32,47.32,0,0,1-7.95,8,104.35,104.35,0,0,1-15.6-9.33q-9.48-6.57-13.46-11.17,1.85-6.42,9.18-17.13t12.23-10.7q4.89,0,14.69,6.88t11.93,11.47a80.1,80.1,0,0,1,8.87-13c3.05-3.56,5.81-5.35,8.25-5.35q4.89,0,15.45,7.49T714,1734.36Q714.57,1739,707.22,1749.35Z" transform="translate(-576 -72)"/><path class="cls-1" d="M1025.8,1791.86q1.68,7,1.68,21.42,0,14.67-1.84,21.56t-6.42,6.88q-27.53,0-39.46-18.35H977A35.21,35.21,0,0,1,965.23,1837a27,27,0,0,1-15.14,4.74,29.66,29.66,0,0,1-15.9-4.74A33.82,33.82,0,0,1,922,1823.37H919.2A46.36,46.36,0,0,1,901.61,1837a54.1,54.1,0,0,1-22.48,4.74,54.65,54.65,0,0,1-22.33-4.59,44,44,0,0,1-17.44-13.76h-2.75a50.18,50.18,0,0,1-17,13.31,48.24,48.24,0,0,1-21.56,5q-4.59,0-6.43-6.88t-1.83-21.56q0-14.38,1.68-21.42t6.58-7q33.33,0,37.62-33h25.39q1.21,19.28,6.73,27.07a17.67,17.67,0,0,0,15.29,7.8q13.46,0,20-9.94a79.53,79.53,0,0,0,10.25-24.31l25.69,4a56,56,0,0,0-.31,6.73q0,11.33,4.13,17.13a12.72,12.72,0,0,0,10.86,5.81q15.9,0,17.44-34.26h25.69q0,13.15,1.22,19.73a15,15,0,0,0,6,9.94q4.74,3.38,15.14,3.37Q1024.11,1784.83,1025.8,1791.86Z" transform="translate(-576 -72)"/><path class="cls-1" d="M1112.21,1776.88a142.2,142.2,0,0,1-3.37,31.2q-3.37,15-9.48,24.77-12.85,3.68-33.95,6.27a378.07,378.07,0,0,1-46.19,2.6q-4.59,0-6.43-6.88t-1.83-21.56q0-14.38,1.68-21.42t6.58-7q32.73,0,48.33-3.67a208.88,208.88,0,0,0-6-20.5q-3.52-10.08-4.13-12.23l48.94-11.32A131.28,131.28,0,0,1,1112.21,1776.88Zm-13.46,120.51q-7.35,10.39-12.54,14.07a91.72,91.72,0,0,1-14.69-8.41q-8.87-6-13.15-10.86a72.2,72.2,0,0,1-7.95,11.32,47.91,47.91,0,0,1-8,8,103.49,103.49,0,0,1-15.6-9.33q-9.48-6.57-13.45-11.16,1.83-6.42,9.17-17.13t12.24-10.71q4.89,0,14.68,6.89t11.93,11.47a79.23,79.23,0,0,1,8.87-13q4.59-5.35,8.26-5.36,4.89,0,15.44,7.5t11.48,11.78Q1106.08,1887,1098.75,1897.39Z" transform="translate(-576 -72)"/><path class="cls-1" d="M1142.08,1906.26q-14.68-9.48-21.1-17.43,14.68-21.72,28.75-51.7a435.23,435.23,0,0,0,24.17-61.78l42.82,14.37q-5.21,30.29-19,66.38a410.1,410.1,0,0,1-17.58,39.92q-9,17.58-13,24Q1156.46,1916.06,1142.08,1906.26Zm26.31-155.84Q1158,1743.24,1154,1738q.91-4,4.74-10.86a74.17,74.17,0,0,1,8.72-12.54q4.89-5.66,8.57-6.27,3.36-.61,10.24,3.06a65.07,65.07,0,0,1,12.85,9q6,5.36,6.58,8.41,1.21,4.59-6.89,16.06t-13.61,15.14Q1178.79,1757.61,1168.39,1750.42Z" transform="translate(-576 -72)"/><path class="cls-1" d="M1249,1841.11q1.53-24.46,1.53-50.78,0-49.23-3.67-119l49.55-2.76q4,58.74,4,111.35,0,33.33-1.22,54.14-6.43,3.66-20.5,6a201.37,201.37,0,0,1-27.83,2.6Z" transform="translate(-576 -72)"/><path class="cls-1" d="M1418.25,1791.86q1.68,7,1.68,21.42,0,14.67-1.83,21.56t-6.43,6.88a143.34,143.34,0,0,1-22.63-2.44q-5.82,15.9-16.52,39.45-7,15.3-13.61,27.38T1350.8,1920q-11.31-4-26.91-15-12.86-8.88-19.28-16.21a514.9,514.9,0,0,0,32.12-49.25,314.24,314.24,0,0,0,25.08-57.5l2.76-1.84a184.65,184.65,0,0,0,26.46,3.67q13.6.91,20.64.92Q1416.56,1784.83,1418.25,1791.86Z" transform="translate(-576 -72)"/><path class="cls-1" d="M1500.38,1740.17q11.61,16.83,11.62,41a100.09,100.09,0,0,1-3.67,26.76,92.73,92.73,0,0,1-11,24.93q-12.55,4.59-33.5,6.73t-52.15,2.14q-4.59,0-6.42-6.88t-1.84-21.56q0-14.38,1.68-21.42t6.58-7h6.12a74.3,74.3,0,0,1,7.34-28.45,66.1,66.1,0,0,1,18.2-23.7,39.9,39.9,0,0,1,25.85-9.33Q1488.74,1723.35,1500.38,1740.17Zm-52-44.81Q1438,1688.18,1434,1683q.91-4,4.74-10.86a74,74,0,0,1,8.72-12.54q4.89-5.65,8.56-6.27,3.36-.61,10.25,3.06a65.49,65.49,0,0,1,12.85,9q6,5.36,6.57,8.41,1.23,4.59-6.88,16.06T1465.2,1705Q1458.78,1702.54,1448.38,1695.36Zm40.07,86.72a40.12,40.12,0,0,0-12.7-8.42,41.36,41.36,0,0,0-14.53-3.51,17.38,17.38,0,0,0-10.24,2.9,8.1,8.1,0,0,0-3.83,7.5q2.76,3.66,19.58,3.67A117.58,117.58,0,0,0,1488.45,1782.08Z" transform="translate(-576 -72)"/><rect class="cls-2" x="288" width="360" height="216" rx="108"/><path class="cls-3" d="M1403.79,881.92a1.79,1.79,0,0,0,.4,0l-.19.09Z" transform="translate(-576 -72)"/><path class="cls-4" d="M1507.15,760.43q-.4-2.77-.84-5.55C1506.64,756.72,1506.92,758.56,1507.15,760.43Z" transform="translate(-576 -72)"/><path class="cls-5" d="M1098,1080v216H684a108,108,0,0,1-108-108V882c0-.47,0-.93,0-1.4,0-.23,0-.47,0-.7a108,108,0,0,1,215.94,0c0,.23,0,.47,0,.7,0,.47,0,.93,0,1.4v162a36,36,0,0,0,36,36Z" transform="translate(-576 -72)"/><path class="cls-6" d="M1512,828v648a108,108,0,0,1-108,108H684a108,108,0,0,1,0-216h576a36,36,0,0,0,0-72H1098l-2.1,0a108,108,0,0,1,0-215.94l2.1,0h162a36,36,0,0,0,36-36V828q0-12.22-1.15-24.14C1309.2,849,1404,882,1404,882s89.52-41.27,103.17-94.59a108.75,108.75,0,0,0,0-27q1,6.75,1.76,13.55c.1.93.21,1.87.31,2.8A470.9,470.9,0,0,1,1512,828Z" transform="translate(-576 -72)"/><path class="cls-7" d="M1508,774a107.93,107.93,0,0,1-103.81,107.91,1.79,1.79,0,0,1-.4,0c-1.26.06-2.52.08-3.79.08a108,108,0,0,1-100-67.13,49.46,49.46,0,0,1-5.16-11h0a251.22,251.22,0,0,0-4.66-29.9q-.82-3.8-1.77-7.53A249.88,249.88,0,0,0,1268,712.5c-.45-.87-.91-1.74-1.37-2.61A251.94,251.94,0,0,0,1042.58,576C903.65,576.77,792,691,792,829.91V882c0-.47,0-.93,0-1.4,0-.23,0-.47,0-.7a108,108,0,0,0-215.94,0c0,.23,0,.47,0,.7,0,.47,0,.93,0,1.4V830.46C576,572.58,783.58,361.38,1041.45,360c196.2-1.05,364.58,118.65,435.14,289.1h0c.81,2,1.6,3.91,2.39,5.88a463.16,463.16,0,0,1,24.7,84.69v0q1.42,7.51,2.62,15.11a.13.13,0,0,1,0,.06q.43,2.77.84,5.55A108.42,108.42,0,0,1,1508,774Z" transform="translate(-576 -72)"/></svg>