<svg id="Layer_1" data-name="Layer 1" xmlns="http://www.w3.org/2000/svg" xmlns:xlink="http://www.w3.org/1999/xlink" viewBox="0 0 1314.63 440.81"><defs><style>.cls-1{fill:url(#linear-gradient);}.cls-2{fill:url(#linear-gradient-8);}.cls-3{fill:url(#linear-gradient-9);}.cls-4{fill:url(#linear-gradient-10);}.cls-5{fill:url(#New_Gradient_Swatch_1);}.cls-6{fill:url(#linear-gradient-11);}.cls-7{fill:url(#linear-gradient-12);}</style><linearGradient id="linear-gradient" x1="338.15" y1="1075.55" x2="1316.9" y2="1075.55" gradientTransform="translate(-11.9 17.95)" gradientUnits="userSpaceOnUse"><stop offset="0" stop-color="#4bdc4b"/><stop offset="1" stop-color="#148c14"/></linearGradient><linearGradient id="linear-gradient-8" x1="1155.82" y1="-4.69" x2="1200.56" y2="67.66" gradientTransform="matrix(1, 0, 0, 1, 0, 0)" xlink:href="#linear-gradient"/><linearGradient id="linear-gradient-9" x1="1609.33" y1="1091.28" x2="1609.45" y2="1091.28" gradientUnits="userSpaceOnUse"><stop offset="0" stop-color="#148c14"/><stop offset="1" stop-color="#4bdc4b"/></linearGradient><linearGradient id="linear-gradient-10" x1="1639.22" y1="1055.04" x2="1639.47" y2="1055.04" xlink:href="#linear-gradient-9"/><linearGradient id="New_Gradient_Swatch_1" x1="1359.53" y1="1086.72" x2="1502.49" y2="1229.68" gradientTransform="matrix(1, 0, 0, 1, 0, 0)" xlink:href="#linear-gradient"/><linearGradient id="linear-gradient-11" x1="1429.7" y1="1339.21" x2="1676.26" y2="1092.64" gradientUnits="userSpaceOnUse"><stop offset="0" stop-color="#4bdc4b"/><stop offset="0.26" stop-color="#49d949"/><stop offset="0.47" stop-color="#42cf42"/><stop offset="0.67" stop-color="#36be36"/><stop offset="0.85" stop-color="#26a626"/><stop offset="1" stop-color="#148c14"/></linearGradient><linearGradient id="linear-gradient-12" x1="1368" y1="1015.2" x2="1639.71" y2="1015.2" xlink:href="#linear-gradient-9"/></defs><title>farazist - side text</title><path class="cls-1" d="M565.34,1099q1.75,7.37,1.76,22.39,0,15.36-1.92,22.55t-6.72,7.2q-16,0-28.14-5.76t-17.59-16.63h-3.2Q491.61,1153,415.17,1153q-19.83,0-44-1.76T326.25,1146a402.55,402.55,0,0,1,10.88-58.53,509.58,509.58,0,0,0,86.36,7q28.14,0,45.42-3.52T495,1079.31q8.8-8.16,10.72-22.23h26.23q0,18.24,6.39,26.39t20.15,8.16Q563.58,1091.63,565.34,1099Zm-101.87-44.46q-7.68,10.88-13.12,14.72a96.44,96.44,0,0,1-15.35-8.8q-9.28-6.24-13.75-11.35a76.43,76.43,0,0,1-8.32,11.83,49.67,49.67,0,0,1-8.31,8.32,108.78,108.78,0,0,1-16.32-9.76q-9.92-6.87-14.07-11.67,1.92-6.72,9.6-17.91t12.79-11.2q5.11,0,15.35,7.2t12.48,12a83.22,83.22,0,0,1,9.27-13.59q4.8-5.59,8.64-5.6,5.11,0,16.15,7.84t12,12.31Q471.15,1043.65,463.47,1054.52Z" transform="translate(-326.25 -855.15)"/><path class="cls-1" d="M796.59,1099q1.75,7.37,1.76,22.39,0,15.36-1.92,22.55t-6.72,7.2q-28.79,0-41.26-19.19h-2.87a36.85,36.85,0,0,1-12.32,14.23,28.26,28.26,0,0,1-15.83,5,31,31,0,0,1-16.63-5,35.35,35.35,0,0,1-12.8-14.23h-2.88a48.35,48.35,0,0,1-18.39,14.23,56.6,56.6,0,0,1-23.51,5,57.2,57.2,0,0,1-23.35-4.8,46.22,46.22,0,0,1-18.23-14.39h-2.88A52.37,52.37,0,0,1,581,1145.84a50.36,50.36,0,0,1-22.55,5.28q-4.8,0-6.71-7.2t-1.92-22.55q0-15,1.76-22.39t6.87-7.35q34.86,0,39.34-34.55h26.55q1.27,20.16,7,28.31a18.48,18.48,0,0,0,16,8.16q14.07,0,21-10.4t10.72-25.43l26.86,4.16a60.72,60.72,0,0,0-.32,7q0,11.83,4.32,17.91a13.32,13.32,0,0,0,11.36,6.08q16.62,0,18.23-35.83h26.87q0,13.76,1.28,20.63a15.57,15.57,0,0,0,6.23,10.4q5,3.53,15.83,3.52Q794.83,1091.63,796.59,1099Z" transform="translate(-326.25 -855.15)"/><path class="cls-1" d="M887,1083.31a148.77,148.77,0,0,1-3.52,32.62q-3.52,15.69-9.92,25.91-13.43,3.84-35.5,6.56a397.12,397.12,0,0,1-48.3,2.72q-4.8,0-6.71-7.2t-1.92-22.55q0-15,1.75-22.39t6.88-7.35q34.23,0,50.54-3.84a215.25,215.25,0,0,0-6.24-21.43q-3.68-10.56-4.32-12.8l51.18-11.83A137.1,137.1,0,0,1,887,1083.31Zm-14.08,126q-7.67,10.88-13.11,14.71a95.47,95.47,0,0,1-15.35-8.79q-9.28-6.24-13.76-11.36a75.24,75.24,0,0,1-8.31,11.84A49.87,49.87,0,0,1,814,1224a109.43,109.43,0,0,1-16.31-9.75q-9.91-6.88-14.08-11.68,1.92-6.7,9.6-17.91T806,1173.51q5.12,0,15.36,7.19t12.47,12a82.8,82.8,0,0,1,9.28-13.59q4.79-5.61,8.63-5.6,5.12,0,16.15,7.83t12,12.32Q880.54,1198.46,872.87,1209.33Z" transform="translate(-326.25 -855.15)"/><path class="cls-1" d="M918.19,1218.61q-15.36-9.91-22.07-18.23,15.35-22.73,30.07-54.06a455.31,455.31,0,0,0,25.26-64.61l44.78,15q-5.44,31.66-19.83,69.41A426.53,426.53,0,0,1,958,1207.89q-9.43,18.39-13.59,25.11Q933.22,1228.85,918.19,1218.61Zm27.51-163q-10.89-7.5-15-13,1-4.15,5-11.36a77.81,77.81,0,0,1,9.12-13.11q5.12-5.91,9-6.56,3.52-.63,10.72,3.2a68.32,68.32,0,0,1,13.43,9.44q6.24,5.6,6.88,8.79,1.28,4.8-7.2,16.8t-14.23,15.83Q956.57,1063.16,945.7,1055.64Z" transform="translate(-326.25 -855.15)"/><path class="cls-1" d="M1030,1150.48q1.6-25.59,1.6-53.1,0-51.5-3.84-124.42l51.82-2.88q4.16,61.41,4.16,116.43,0,34.86-1.28,56.61-6.72,3.84-21.43,6.24a210.6,210.6,0,0,1-29.11,2.72Z" transform="translate(-326.25 -855.15)"/><path class="cls-1" d="M1207,1099q1.76,7.37,1.76,22.39,0,15.36-1.92,22.55t-6.72,7.2q-8.64,0-23.67-2.56-6.08,16.62-17.27,41.26-7.37,16-14.23,28.63t-8.48,14.55q-11.84-4.15-28.15-15.67-13.43-9.28-20.15-16.95a542,542,0,0,0,33.59-51.5,329,329,0,0,0,26.22-60.13l2.88-1.92a194.26,194.26,0,0,0,27.67,3.84q14.24,1,21.59,1Q1205.21,1091.63,1207,1099Z" transform="translate(-326.25 -855.15)"/><path class="cls-1" d="M1292.85,1044.93q12.15,17.6,12.15,42.86a104.69,104.69,0,0,1-3.84,28,96.89,96.89,0,0,1-11.51,26.07q-13.12,4.8-35,7t-54.53,2.24q-4.8,0-6.72-7.2t-1.92-22.55q0-15,1.76-22.39t6.88-7.35h6.4a77.81,77.81,0,0,1,7.67-29.75,69.34,69.34,0,0,1,19-24.79,41.75,41.75,0,0,1,27-9.75Q1280.68,1027.34,1292.85,1044.93Zm-54.38-46.86q-10.87-7.52-15-13,1-4.15,5-11.36a77.36,77.36,0,0,1,9.11-13.11q5.12-5.92,9-6.56,3.51-.63,10.71,3.2a68.46,68.46,0,0,1,13.44,9.43q6.23,5.61,6.87,8.8,1.27,4.8-7.19,16.79t-14.24,15.84Q1249.34,1005.59,1238.47,998.07Zm41.9,90.68a41.84,41.84,0,0,0-13.27-8.8,43.48,43.48,0,0,0-15.2-3.68,18.2,18.2,0,0,0-10.71,3,8.47,8.47,0,0,0-4,7.84q2.88,3.84,20.47,3.84A122.43,122.43,0,0,0,1280.37,1088.75Z" transform="translate(-326.25 -855.15)"/><rect class="cls-2" x="1125.71" width="104.95" height="62.97" rx="31.49"/><path class="cls-3" d="M1609.33,1091.27h.12l-.06,0Z" transform="translate(-326.25 -855.15)"/><path class="cls-4" d="M1639.47,1055.85c-.08-.54-.16-1.08-.25-1.62C1639.32,1054.77,1639.4,1055.3,1639.47,1055.85Z" transform="translate(-326.25 -855.15)"/><path class="cls-5" d="M1520.18,1149v63H1399.49A31.49,31.49,0,0,1,1368,1180.5v-89.21c0-.14,0-.27,0-.41v-.2a31.48,31.48,0,0,1,63,0,1.41,1.41,0,0,1,0,.2v47.64a10.5,10.5,0,0,0,10.5,10.5Z" transform="translate(-326.25 -855.15)"/><path class="cls-6" d="M1640.88,1075.55v188.92a31.48,31.48,0,0,1-31.49,31.48h-209.9a31.49,31.49,0,1,1,0-63h167.92a10.5,10.5,0,1,0,0-21h-47.84a31.49,31.49,0,0,1,0-63h47.84a10.5,10.5,0,0,0,10.5-10.5v-63c0-2.38-.12-4.72-.34-7,4.19,13.15,31.82,22.78,31.82,22.78s26.1-12,30.08-27.58a31.3,31.3,0,0,0,.24-3.9,32.15,32.15,0,0,0-.24-4c.19,1.31.36,2.63.51,4l.09.82A136.25,136.25,0,0,1,1640.88,1075.55Z" transform="translate(-326.25 -855.15)"/><path class="cls-7" d="M1639.71,1059.81a31.45,31.45,0,0,1-30.26,31.46h-.12c-.36,0-.73,0-1.1,0a31.49,31.49,0,0,1-29.15-19.57,14.18,14.18,0,0,1-1.51-3.21h0a73.64,73.64,0,0,0-1.36-8.72q-.24-1.11-.51-2.19a72.51,72.51,0,0,0-6-15.72l-.4-.77a73.46,73.46,0,0,0-65.32-39c-40.51.23-73.06,33.52-73.06,74v14.77a1.41,1.41,0,0,0,0-.2,31.48,31.48,0,0,0-63,0v.2c0,.14,0,.27,0,.41v-15c0-75.19,60.52-136.76,135.7-137.16a136.48,136.48,0,0,1,126.86,84.29h0l.69,1.71a134.64,134.64,0,0,1,7.2,24.69h0c.28,1.46.54,2.93.77,4.4v0c.09.54.17,1.08.25,1.62A32.15,32.15,0,0,1,1639.71,1059.81Z" transform="translate(-326.25 -855.15)"/></svg>