<svg id="Layer_1" data-name="Layer 1" xmlns="http://www.w3.org/2000/svg" xmlns:xlink="http://www.w3.org/1999/xlink" viewBox="0 0 1810.08 536.18"><defs><style>.cls-1{fill:url(#linear-gradient);}.cls-2{fill:url(#linear-gradient-8);}.cls-3{fill:url(#linear-gradient-9);}.cls-4{fill:url(#linear-gradient-10);}.cls-5{fill:url(#New_Gradient_Swatch_1);}.cls-6{fill:url(#linear-gradient-11);}.cls-7{fill:url(#linear-gradient-12);}</style><linearGradient id="linear-gradient" x1="98.28" y1="1000" x2="1485.72" y2="1000" gradientUnits="userSpaceOnUse"><stop offset="0" stop-color="#4bdc4b"/><stop offset="1" stop-color="#148c14"/></linearGradient><linearGradient id="linear-gradient-8" x1="1616.91" y1="-5.7" x2="1671.33" y2="82.3" xlink:href="#linear-gradient"/><linearGradient id="linear-gradient-9" x1="1869.99" y1="1019.13" x2="1870.13" y2="1019.13" gradientUnits="userSpaceOnUse"><stop offset="0" stop-color="#148c14"/><stop offset="1" stop-color="#4bdc4b"/></linearGradient><linearGradient id="linear-gradient-10" x1="1906.34" y1="975.05" x2="1906.64" y2="975.05" xlink:href="#linear-gradient-9"/><linearGradient id="New_Gradient_Swatch_1" x1="1566.14" y1="1013.59" x2="1740.03" y2="1187.48" xlink:href="#linear-gradient"/><linearGradient id="linear-gradient-11" x1="1651.49" y1="1320.7" x2="1951.4" y2="1020.79" gradientUnits="userSpaceOnUse"><stop offset="0" stop-color="#4bdc4b"/><stop offset="0.26" stop-color="#49d949"/><stop offset="0.47" stop-color="#42cf42"/><stop offset="0.67" stop-color="#36be36"/><stop offset="0.85" stop-color="#26a626"/><stop offset="1" stop-color="#148c14"/></linearGradient><linearGradient id="linear-gradient-12" x1="1576.44" y1="926.6" x2="1906.94" y2="926.6" xlink:href="#linear-gradient-9"/></defs><title>farazist - side text</title><path class="cls-1" d="M437.2,1007.77q2.49,10.44,2.5,31.74,0,21.77-2.72,32t-9.53,10.2q-22.67,0-39.89-8.16t-24.94-23.58h-4.54q-25.4,34.45-133.75,34.46-28.12,0-62.35-2.49t-63.7-7.49a572,572,0,0,1,15.42-83,722.08,722.08,0,0,0,122.42,10q39.88,0,64.38-5t36.95-16.55q12.46-11.57,15.19-31.51h37.18q0,25.85,9.07,37.4t28.56,11.56Q434.71,997.34,437.2,1007.77Zm-144.41-63q-10.87,15.42-18.59,20.86-8.61-3.63-21.76-12.47T232.94,937a106.48,106.48,0,0,1-11.79,16.78c-4.83,5.74-8.77,9.67-11.78,11.79q-9.08-4.08-23.13-13.83t-20-16.55q2.73-9.53,13.6-25.39T198,894q7.25,0,21.76,10.2t17.69,17a118.52,118.52,0,0,1,13.15-19.27q6.8-7.92,12.24-7.93,7.25,0,22.89,11.11t17,17.45Q303.67,929.34,292.79,944.75Z" transform="translate(-98.28 -731.91)"/><path class="cls-1" d="M765,1007.77q2.49,10.44,2.49,31.74,0,21.77-2.72,32t-9.52,10.2q-40.82,0-58.49-27.21H692.7q-6.81,13.15-17.46,20.18a40.08,40.08,0,0,1-22.44,7,44.08,44.08,0,0,1-23.58-7,50.18,50.18,0,0,1-18.14-20.18H607a68.54,68.54,0,0,1-26.07,20.18,80.29,80.29,0,0,1-33.32,7,81.12,81.12,0,0,1-33.1-6.8,65.41,65.41,0,0,1-25.85-20.41h-4.08a74.23,74.23,0,0,1-25.16,19.73,71.58,71.58,0,0,1-32,7.48q-6.79,0-9.52-10.2t-2.72-32q0-21.3,2.49-31.74t9.75-10.43q49.43,0,55.77-49h37.64q1.8,28.56,10,40.12t22.67,11.56q19.95,0,29.7-14.73t15.19-36.05l38.08,5.9a85.56,85.56,0,0,0-.45,10q0,16.79,6.12,25.39t16.1,8.62q23.57,0,25.84-50.78h38.09q0,19.5,1.81,29.24t8.84,14.74q7,5,22.45,5Q762.52,997.34,765,1007.77Z" transform="translate(-98.28 -731.91)"/><path class="cls-1" d="M893.1,985.56a210.1,210.1,0,0,1-5,46.24q-5,22.23-14.05,36.73-19,5.45-50.33,9.29a560,560,0,0,1-68.47,3.86q-6.79,0-9.52-10.2t-2.72-32q0-21.3,2.5-31.74t9.74-10.43q48.53,0,71.64-5.44a306.57,306.57,0,0,0-8.84-30.38q-5.22-15-6.12-18.13l72.55-16.78A194.75,194.75,0,0,1,893.1,985.56Zm-20,178.64q-10.87,15.4-18.59,20.86-8.61-3.64-21.76-12.47t-19.5-16.1a107.61,107.61,0,0,1-11.79,16.78q-7.26,8.6-11.79,11.79-9.08-4.1-23.12-13.83t-20-16.55q2.72-9.53,13.6-25.39t18.14-15.87q7.25,0,21.76,10.2t17.69,17A118.07,118.07,0,0,1,831,1121.35q6.81-7.93,12.25-7.93,7.24,0,22.89,11.1t17,17.46Q884,1148.79,873.15,1164.2Z" transform="translate(-98.28 -731.91)"/><path class="cls-1" d="M937.39,1177.35q-21.76-14.07-31.29-25.85,21.76-32.19,42.63-76.62a646.09,646.09,0,0,0,35.81-91.59L1048,1004.6q-7.71,44.88-28.11,98.39a608.78,608.78,0,0,1-26.07,59.17q-13.38,26.07-19.27,35.59Q958.69,1191.86,937.39,1177.35Zm39-231Q961,935.69,955.07,928q1.36-5.88,7-16.09A109.72,109.72,0,0,1,975,893.29q7.25-8.38,12.7-9.3,5-.9,15.19,4.54a96.24,96.24,0,0,1,19,13.37q8.83,7.94,9.75,12.47,1.8,6.79-10.2,23.8t-20.18,22.45Q991.8,957,976.38,946.34Z" transform="translate(-98.28 -731.91)"/><path class="cls-1" d="M1095.94,1080.77q2.26-36.27,2.26-75.27,0-73-5.44-176.37l73.45-4.08q5.89,87,5.9,165,0,49.42-1.82,80.25-9.51,5.45-30.37,8.84a298.07,298.07,0,0,1-41.26,3.86Z" transform="translate(-98.28 -731.91)"/><path class="cls-1" d="M1346.75,1007.77q2.49,10.44,2.5,31.74,0,21.77-2.72,32t-9.53,10.2q-12.24,0-33.55-3.63-8.61,23.57-24.48,58.49-10.44,22.67-20.18,40.58t-12,20.63q-16.79-5.89-39.9-22.22-19.05-13.15-28.57-24a766,766,0,0,0,47.61-73,467,467,0,0,0,37.18-85.24l4.08-2.72A274.35,274.35,0,0,0,1306.4,996q20.16,1.37,30.6,1.36Q1344.26,997.34,1346.75,1007.77Z" transform="translate(-98.28 -731.91)"/><path class="cls-1" d="M1468.49,931.15q17.22,24.93,17.23,60.75a148.46,148.46,0,0,1-5.44,39.68,137.47,137.47,0,0,1-16.32,37q-18.6,6.79-49.65,10t-77.31,3.18q-6.8,0-9.52-10.2t-2.72-32q0-21.3,2.49-31.74t9.75-10.43h9.07q.9-20.85,10.88-42.16a98,98,0,0,1,27-35.14,59.11,59.11,0,0,1,38.31-13.83Q1451.25,906.21,1468.49,931.15Zm-77.08-66.43q-15.42-10.65-21.31-18.36c.91-3.93,3.24-9.3,7-16.1a109.54,109.54,0,0,1,12.92-18.59q7.25-8.38,12.7-9.29,5-.9,15.18,4.53a96.36,96.36,0,0,1,19,13.38q8.83,7.94,9.75,12.47,1.8,6.79-10.21,23.8T1416.35,879Q1406.83,875.39,1391.41,864.72Zm59.4,128.54A59.73,59.73,0,0,0,1432,980.79a61.69,61.69,0,0,0-21.54-5.21q-9.08,0-15.19,4.31T1389.6,991q4.08,5.43,29,5.44A173,173,0,0,0,1450.81,993.26Z" transform="translate(-98.28 -731.91)"/><rect class="cls-2" x="1580.29" width="127.66" height="76.6" rx="38.3"/><path class="cls-3" d="M1870,1019.12h.14l-.07,0Z" transform="translate(-98.28 -731.91)"/><path class="cls-4" d="M1906.64,976c-.1-.66-.19-1.31-.3-2C1906.46,974.72,1906.56,975.38,1906.64,976Z" transform="translate(-98.28 -731.91)"/><path class="cls-5" d="M1761.55,1089.36V1166H1614.74a38.3,38.3,0,0,1-38.3-38.3V1019.15c0-.17,0-.33,0-.5v-.25a38.3,38.3,0,0,1,76.58,0v.25c0,.17,0,.33,0,.5v57.45a12.76,12.76,0,0,0,12.76,12.76Z" transform="translate(-98.28 -731.91)"/><path class="cls-6" d="M1908.36,1000v229.79a38.3,38.3,0,0,1-38.3,38.3H1614.74a38.3,38.3,0,0,1,0-76.6H1819a12.77,12.77,0,0,0,0-25.53h-58.2a38.3,38.3,0,0,1,0-76.58H1819a12.76,12.76,0,0,0,12.76-12.76V1000c0-2.89-.14-5.74-.4-8.56,5.08,16,38.7,27.71,38.7,27.71s31.75-14.64,36.59-33.54a39.38,39.38,0,0,0,.29-4.76,38.11,38.11,0,0,0-.3-4.81c.23,1.59.44,3.19.62,4.8,0,.33.08.67.11,1A165,165,0,0,1,1908.36,1000Z" transform="translate(-98.28 -731.91)"/><path class="cls-7" d="M1906.94,980.85a39.38,39.38,0,0,1-.29,4.76,38.31,38.31,0,0,1-36.52,33.51H1870l-1.35,0a38.29,38.29,0,0,1-35.45-23.81,17.23,17.23,0,0,1-1.83-3.9h0a90.17,90.17,0,0,0-1.66-10.61c-.19-.89-.4-1.78-.62-2.67a88.91,88.91,0,0,0-7.24-19.12l-.48-.92a89.34,89.34,0,0,0-79.46-47.48c-49.27.27-88.86,40.77-88.86,90v18.47c0-.17,0-.33,0-.5v-.25a38.3,38.3,0,0,0-76.58,0v.25c0,.17,0,.33,0,.5v-18.28c0-91.45,73.61-166.34,165.06-166.83a166,166,0,0,1,154.3,102.52h0c.29.69.57,1.38.85,2.08a163.92,163.92,0,0,1,8.76,30h0c.34,1.78.65,3.56.93,5.36v0c.11.66.2,1.31.3,2A38.11,38.11,0,0,1,1906.94,980.85Z" transform="translate(-98.28 -731.91)"/></svg>