<svg id="Layer_1" data-name="Layer 1" xmlns="http://www.w3.org/2000/svg" xmlns:xlink="http://www.w3.org/1999/xlink" viewBox="0 0 936 1512"><defs><style>.cls-1{fill:url(#linear-gradient);}.cls-2{fill:url(#linear-gradient-2);}.cls-3{fill:url(#linear-gradient-3);}.cls-4{fill:url(#New_Gradient_Swatch_1);}.cls-5{fill:url(#linear-gradient-4);}.cls-6{fill:url(#linear-gradient-5);}</style><linearGradient id="linear-gradient" x1="391.26" y1="-16.07" x2="544.74" y2="232.07" gradientUnits="userSpaceOnUse"><stop offset="0" stop-color="#4bdc4b"/><stop offset="1" stop-color="#148c14"/></linearGradient><linearGradient id="linear-gradient-2" x1="1403.79" y1="881.95" x2="1404.19" y2="881.95" gradientUnits="userSpaceOnUse"><stop offset="0" stop-color="#148c14"/><stop offset="1" stop-color="#4bdc4b"/></linearGradient><linearGradient id="linear-gradient-3" x1="1506.31" y1="757.65" x2="1507.15" y2="757.65" xlink:href="#linear-gradient-2"/><linearGradient id="New_Gradient_Swatch_1" x1="546.95" y1="866.32" x2="1037.32" y2="1356.68" xlink:href="#linear-gradient"/><linearGradient id="linear-gradient-4" x1="787.63" y1="1732.37" x2="1633.36" y2="886.64" gradientUnits="userSpaceOnUse"><stop offset="0" stop-color="#4bdc4b"/><stop offset="0.26" stop-color="#49d949"/><stop offset="0.47" stop-color="#42cf42"/><stop offset="0.67" stop-color="#36be36"/><stop offset="0.85" stop-color="#26a626"/><stop offset="1" stop-color="#148c14"/></linearGradient><linearGradient id="linear-gradient-5" x1="576" y1="621" x2="1508" y2="621" xlink:href="#linear-gradient-2"/></defs><title>farazist - no text</title><rect class="cls-1" x="288" width="360" height="216" rx="108"/><path class="cls-2" d="M1403.79,881.92a1.79,1.79,0,0,0,.4,0l-.19.09Z" transform="translate(-576 -72)"/><path class="cls-3" d="M1507.15,760.43q-.4-2.77-.84-5.55C1506.64,756.72,1506.92,758.56,1507.15,760.43Z" transform="translate(-576 -72)"/><path class="cls-4" d="M1098,1080v216H684a108,108,0,0,1-108-108V882c0-.47,0-.93,0-1.4,0-.23,0-.47,0-.7a108,108,0,0,1,215.94,0c0,.23,0,.47,0,.7,0,.47,0,.93,0,1.4v162a36,36,0,0,0,36,36Z" transform="translate(-576 -72)"/><path class="cls-5" d="M1512,828v648a108,108,0,0,1-108,108H684a108,108,0,0,1,0-216h576a36,36,0,0,0,0-72H1098l-2.1,0a108,108,0,0,1,0-215.94l2.1,0h162a36,36,0,0,0,36-36V828q0-12.22-1.15-24.14C1309.2,849,1404,882,1404,882s89.52-41.27,103.17-94.59a108.75,108.75,0,0,0,0-27q1,6.75,1.76,13.55c.1.93.21,1.87.31,2.8A470.9,470.9,0,0,1,1512,828Z" transform="translate(-576 -72)"/><path class="cls-6" d="M1508,774a107.93,107.93,0,0,1-103.81,107.91,1.79,1.79,0,0,1-.4,0c-1.26.06-2.52.08-3.79.08a108,108,0,0,1-100-67.13,49.46,49.46,0,0,1-5.16-11h0a251.22,251.22,0,0,0-4.66-29.9q-.82-3.8-1.77-7.53A249.88,249.88,0,0,0,1268,712.5c-.45-.87-.91-1.74-1.37-2.61A251.94,251.94,0,0,0,1042.58,576C903.65,576.77,792,691,792,829.91V882c0-.47,0-.93,0-1.4,0-.23,0-.47,0-.7a108,108,0,0,0-215.94,0c0,.23,0,.47,0,.7,0,.47,0,.93,0,1.4V830.46C576,572.58,783.58,361.38,1041.45,360c196.2-1.05,364.58,118.65,435.14,289.1h0c.81,2,1.6,3.91,2.39,5.88a463.16,463.16,0,0,1,24.7,84.69v0q1.42,7.51,2.62,15.11a.13.13,0,0,1,0,.06q.43,2.77.84,5.55A108.42,108.42,0,0,1,1508,774Z" transform="translate(-576 -72)"/></svg>