<?xml version="1.0" encoding="utf-8"?>
<!-- Generator: Adobe Illustrator 24.0.1, SVG Export Plug-In . SVG Version: 6.00 Build 0)  -->
<svg version="1.1" id="Layer_1" xmlns="http://www.w3.org/2000/svg" xmlns:xlink="http://www.w3.org/1999/xlink" x="0px" y="0px"
	 viewBox="0 0 70 70" style="enable-background:new 0 0 70 70;" xml:space="preserve">
<style type="text/css">
	.st0{fill:#E5E5E5;}
	.st1{fill:#231F20;}
	.st2{fill:#FFFFFF;}
	.st3{fill:url(#SVGID_1_);}
	.st4{fill:url(#SVGID_2_);}
	.st5{fill:url(#SVGID_3_);}
	.st6{fill:url(#SVGID_4_);}
	.st7{fill:url(#SVGID_5_);}
	.st8{fill:url(#SVGID_6_);}
</style>
<g id="Warstwa_2">
	<rect id="XMLID_5_" x="16" y="7.1" class="st0" width="38" height="56"/>
</g>
<g id="Warstwa_1">
	<path id="XMLID_1_" class="st1" d="M54,7.1H16v-1c0-3.3,2.7-6,6-6h26c3.3,0,6,2.7,6,6V7.1z"/>
	<path id="XMLID_2_" class="st1" d="M48,70.1H22c-3.3,0-6-2.7-6-6v-1h38v1C54,67.4,51.3,70.1,48,70.1z"/>
	<rect id="XMLID_3_" x="16" y="7.1" class="st1" width="1.4" height="56"/>
	<rect id="XMLID_4_" x="52.6" y="7.1" class="st1" width="1.4" height="56"/>
	<path id="XMLID_6_" class="st2" d="M47.9,4.1H22.1c-0.6,0-1-0.5-1-1l0,0c0-0.6,0.5-1,1-1h25.8c0.6,0,1,0.5,1,1l0,0
		C48.9,3.7,48.5,4.1,47.9,4.1z"/>
</g>
<g>
	<linearGradient id="SVGID_1_" gradientUnits="userSpaceOnUse" x1="33.7949" y1="23.3233" x2="36.135" y2="27.107">
		<stop  offset="0" style="stop-color:#4BDC4B"/>
		<stop  offset="1" style="stop-color:#148C14"/>
	</linearGradient>
	<path class="st3" d="M36.1,26.9h-2.2c-0.9,0-1.6-0.7-1.6-1.6v0c0-0.9,0.7-1.6,1.6-1.6h2.2c0.9,0,1.6,0.7,1.6,1.6v0
		C37.7,26.1,37,26.9,36.1,26.9z"/>
	<linearGradient id="SVGID_2_" gradientUnits="userSpaceOnUse" x1="40.451" y1="35.9185" x2="40.4571" y2="35.9185">
		<stop  offset="0" style="stop-color:#148C14"/>
		<stop  offset="1" style="stop-color:#4BDC4B"/>
	</linearGradient>
	<polygon class="st4" points="40.5,35.9 40.5,35.9 40.5,35.9 	"/>
	<linearGradient id="SVGID_3_" gradientUnits="userSpaceOnUse" x1="42.0142" y1="34.0232" x2="42.027" y2="34.0232">
		<stop  offset="0" style="stop-color:#148C14"/>
		<stop  offset="1" style="stop-color:#4BDC4B"/>
	</linearGradient>
	<path class="st5" d="M42,34.1C42,34,42,34,42,34.1C42,34,42,34,42,34.1z"/>
	<linearGradient id="SVGID_4_" gradientUnits="userSpaceOnUse" x1="27.386" y1="35.68" x2="34.863" y2="43.1571">
		<stop  offset="0" style="stop-color:#4BDC4B"/>
		<stop  offset="1" style="stop-color:#148C14"/>
	</linearGradient>
	<path class="st6" d="M35.8,38.9v3.3h-6.3c-0.9,0-1.6-0.7-1.6-1.6v-4.7c0,0,0,0,0,0c0,0,0,0,0,0c0-0.9,0.7-1.6,1.6-1.6
		s1.6,0.7,1.6,1.6c0,0,0,0,0,0c0,0,0,0,0,0v2.5c0,0.3,0.2,0.5,0.5,0.5H35.8z"/>
	<linearGradient id="SVGID_5_" gradientUnits="userSpaceOnUse" x1="31.0559" y1="48.8855" x2="43.9514" y2="35.9899">
		<stop  offset="0" style="stop-color:#4BDC4B"/>
		<stop  offset="0.2626" style="stop-color:#49D949"/>
		<stop  offset="0.4736" style="stop-color:#42CF42"/>
		<stop  offset="0.6665" style="stop-color:#36BE36"/>
		<stop  offset="0.8476" style="stop-color:#26A626"/>
		<stop  offset="1" style="stop-color:#148C14"/>
	</linearGradient>
	<path class="st7" d="M42.1,35.1V45c0,0.9-0.7,1.6-1.6,1.6h-11c-0.9,0-1.6-0.7-1.6-1.6s0.7-1.6,1.6-1.6h8.8c0.2,0,0.3-0.1,0.4-0.2
		c0.1-0.1,0.2-0.2,0.2-0.4c0-0.3-0.2-0.5-0.5-0.5h-2.5c0,0,0,0,0,0c-0.9,0-1.6-0.7-1.6-1.6s0.7-1.6,1.6-1.6c0,0,0,0,0,0h2.5
		c0.3,0,0.5-0.2,0.5-0.5v-3.3c0-0.1,0-0.2,0-0.4c0.2,0.7,1.7,1.2,1.7,1.2s1.4-0.6,1.6-1.4c0-0.1,0-0.1,0-0.2c0-0.1,0-0.1,0-0.2
		c0,0.1,0,0.1,0,0.2c0,0,0,0,0,0C42.1,34.6,42.1,34.8,42.1,35.1z"/>
	<linearGradient id="SVGID_6_" gradientUnits="userSpaceOnUse" x1="27.8289" y1="31.9395" x2="42.04" y2="31.9395">
		<stop  offset="0" style="stop-color:#148C14"/>
		<stop  offset="1" style="stop-color:#4BDC4B"/>
	</linearGradient>
	<path class="st8" d="M42,34.3c0,0.1,0,0.1,0,0.2c-0.1,0.8-0.8,1.4-1.6,1.4c0,0,0,0,0,0c0,0,0,0-0.1,0c-0.7,0-1.3-0.4-1.5-1
		c0-0.1-0.1-0.1-0.1-0.2v0c0-0.2,0-0.3-0.1-0.5c0,0,0-0.1,0-0.1c-0.1-0.3-0.2-0.6-0.3-0.8c0,0,0,0,0,0c-0.6-1.2-1.9-2-3.4-2
		c-2.1,0-3.8,1.8-3.8,3.9v0.8c0,0,0,0,0,0c0,0,0,0,0,0c0-0.9-0.7-1.6-1.6-1.6s-1.6,0.7-1.6,1.6c0,0,0,0,0,0c0,0,0,0,0,0v-0.8
		c0-3.9,3.2-7.2,7.1-7.2c3,0,5.6,1.8,6.6,4.4v0c0,0,0,0.1,0,0.1c0.2,0.4,0.3,0.8,0.4,1.3c0,0,0,0,0,0c0,0.1,0,0.2,0,0.2c0,0,0,0,0,0
		c0,0,0,0.1,0,0.1C42,34.1,42,34.2,42,34.3z"/>
</g>
</svg>
