<?xml version="1.0" encoding="iso-8859-1"?>
<!-- Generator: Adobe Illustrator 19.0.0, SVG Export Plug-In . SVG Version: 6.00 Build 0)  -->
<svg version="1.1" id="Capa_1" xmlns="http://www.w3.org/2000/svg" xmlns:xlink="http://www.w3.org/1999/xlink" x="0px" y="0px"
	 viewBox="0 0 409.6 409.6" style="enable-background:new 0 0 409.6 409.6;" xml:space="preserve">
<path style="fill:#EBF0F3;" d="M48.7,0C22.994,0,2.155,20.753,2.155,46.352V409.6l22.61-22.621l22.249,22.26l22.251-22.26
	l22.25,22.26l22.25-22.26l22.249,22.26l22.251-22.26l22.251,22.26l22.249-22.26l22.249,22.26l22.251-22.26l22.251,22.26
	l22.249-22.26l22.61,22.621V144.914L360.911,0H48.7z"/>
<path style="fill:#E1E6E9;" d="M360.911,0L360.911,0c-25.699,0-46.534,20.747-46.534,46.341v98.573h93.067V46.341
	C407.445,20.747,386.611,0,360.911,0z"/>
<rect x="29.138" y="49.551" style="fill:#27A2DB;" width="91.249" height="17.48"/>
<g>
	<rect x="29.138" y="101.97" style="fill:#D5D6DB;" width="130.401" height="17.48"/>
	<rect x="29.138" y="154.368" style="fill:#D5D6DB;" width="130.401" height="17.48"/>
	<rect x="29.138" y="206.797" style="fill:#D5D6DB;" width="166.651" height="17.48"/>
	<rect x="29.138" y="259.226" style="fill:#D5D6DB;" width="103.716" height="17.48"/>
	<rect x="29.138" y="311.634" style="fill:#D5D6DB;" width="130.401" height="17.48"/>
	<rect x="247.757" y="154.368" style="fill:#D5D6DB;" width="38.446" height="17.48"/>
	<rect x="247.757" y="206.797" style="fill:#D5D6DB;" width="38.446" height="17.48"/>
	<rect x="247.757" y="259.226" style="fill:#D5D6DB;" width="38.446" height="17.48"/>
	<rect x="247.757" y="311.634" style="fill:#D5D6DB;" width="38.446" height="17.48"/>
</g>
<g>
</g>
<g>
</g>
<g>
</g>
<g>
</g>
<g>
</g>
<g>
</g>
<g>
</g>
<g>
</g>
<g>
</g>
<g>
</g>
<g>
</g>
<g>
</g>
<g>
</g>
<g>
</g>
<g>
</g>
</svg>
