<?xml version="1.0" encoding="iso-8859-1"?>
<!-- Generator: Adobe Illustrator 19.0.0, SVG Export Plug-In . SVG Version: 6.00 Build 0)  -->
<svg version="1.1" id="Capa_1" xmlns="http://www.w3.org/2000/svg" xmlns:xlink="http://www.w3.org/1999/xlink" x="0px" y="0px"
	 viewBox="0 0 464.001 464.001" style="enable-background:new 0 0 464.001 464.001;" xml:space="preserve">
<path style="fill:#6A9923;" d="M242.664,50.665L216.088,8.001h-37.432C161.51,7.998,145.62,16.994,136.8,31.697L112,72.001l88,56
	L242.664,50.665z"/>
<path style="fill:#88B337;" d="M382.792,84.905L352,32.001c-7.836-14.813-23.242-24.057-40-24h-95.912l71.912,136l-40,24
	l119.056,13.544L424,64.001L382.792,84.905z"/>
<path style="fill:#6A9923;" d="M432,176.001l-96,56l40,72h64l16.72-27c9.285-15.032,9.719-33.909,1.136-49.352L432,176.001z"/>
<path style="fill:#88B337;" d="M280,304.001v-40l-80,88l80,104v-32h64c16.853,0.411,32.432-8.936,40-24l56-96H280z"/>
<path style="fill:#6A9923;" d="M80,312.001l-19.48,44.896l24.344,42.168c9.03,15.283,25.386,24.738,43.136,24.936h32v-112H80z"/>
<path style="fill:#88B337;" d="M176,240.001l-48-104l-128,8l45.752,28.368L16,232.001c-8.276,14.93-8.276,33.07,0,48l44.512,76.896
	l16.656-28.896l59.456-103.2L176,240.001z"/>
<g>
</g>
<g>
</g>
<g>
</g>
<g>
</g>
<g>
</g>
<g>
</g>
<g>
</g>
<g>
</g>
<g>
</g>
<g>
</g>
<g>
</g>
<g>
</g>
<g>
</g>
<g>
</g>
<g>
</g>
</svg>
