<svg xmlns="http://www.w3.org/2000/svg" xmlns:xlink="http://www.w3.org/1999/xlink" viewBox="0 0 376.3 323.75"><defs><style>.cls-1{isolation:isolate;}.cls-2{fill:#1ae5ff;}.cls-3{opacity:0.57;}.cls-4{fill:#fff;}.cls-5{fill:url(#linear-gradient);}.cls-6{fill:url(#linear-gradient-2);}.cls-7{fill:url(#linear-gradient-3);}.cls-8{fill:url(#linear-gradient-4);}.cls-9{fill:#f9fbfc;}.cls-10{fill:url(#linear-gradient-5);}.cls-11{fill:#cfe3ff;}.cls-12{fill:url(#linear-gradient-6);}.cls-13{fill:url(#linear-gradient-7);}.cls-14{fill:#ff9d6f;}.cls-15,.cls-28{opacity:0.21;mix-blend-mode:multiply;}.cls-15{fill:url(#linear-gradient-8);}.cls-16{fill:#113c7a;}.cls-17{fill:url(#linear-gradient-9);}.cls-18{fill:#ff7c40;}.cls-19{fill:url(#linear-gradient-10);}.cls-20{fill:url(#linear-gradient-11);}.cls-21{fill:#843837;}.cls-22{fill:#cfdae4;}.cls-23{opacity:0.67;}.cls-24{opacity:0.53;}.cls-25{fill:url(#linear-gradient-12);}.cls-26{opacity:0.46;}.cls-27{fill:url(#linear-gradient-13);}.cls-29{fill:url(#linear-gradient-14);}.cls-30{fill:#5155d4;}.cls-31{fill:#343996;}.cls-32{fill:#ff3d9d;}</style><linearGradient id="linear-gradient" x1="88.99" y1="243.65" x2="103.97" y2="243.65" gradientUnits="userSpaceOnUse"><stop offset="0" stop-color="#cc68ff"/><stop offset="1" stop-color="#fb8e31"/></linearGradient><linearGradient id="linear-gradient-2" x1="113.51" y1="363.93" x2="155.62" y2="50.98" gradientTransform="matrix(-1, 0, 0, 1, 443.15, 0)" gradientUnits="userSpaceOnUse"><stop offset="0" stop-color="#1ae5ff"/><stop offset="0.26" stop-color="#64e8f9"/><stop offset="0.7" stop-color="#eaeeee"/></linearGradient><linearGradient id="linear-gradient-3" x1="27.52" y1="280.7" x2="44.7" y2="280.7" gradientTransform="matrix(-1, 0, 0, 1, 443.15, 0)" gradientUnits="userSpaceOnUse"><stop offset="0" stop-color="#5155d4"/><stop offset="1" stop-color="#45f7ff"/></linearGradient><linearGradient id="linear-gradient-4" x1="196.08" y1="227.01" x2="408.77" y2="227.01" gradientUnits="userSpaceOnUse"><stop offset="0" stop-color="#7f5eff"/><stop offset="0.24" stop-color="#8665ff"/><stop offset="0.6" stop-color="#9978ff"/><stop offset="0.94" stop-color="#b391ff"/></linearGradient><linearGradient id="linear-gradient-5" x1="298.17" y1="140.22" x2="309.07" y2="278.88" gradientTransform="matrix(1, 0, 0, 1, 0, 0)" xlink:href="#linear-gradient-3"/><linearGradient id="linear-gradient-6" x1="292.47" y1="245.78" x2="292.47" y2="294.11" xlink:href="#linear-gradient-4"/><linearGradient id="linear-gradient-7" x1="545.07" y1="296.84" x2="574.15" y2="271.49" gradientTransform="matrix(-1, 0, 0, 1, 779.1, 0)" xlink:href="#linear-gradient-2"/><linearGradient id="linear-gradient-8" x1="109.99" y1="391.57" x2="181.06" y2="391.57" gradientTransform="translate(25.48 -88.93)" xlink:href="#linear-gradient-3"/><linearGradient id="linear-gradient-9" x1="548.53" y1="363.56" x2="541.98" y2="226.82" gradientTransform="matrix(-1, 0, 0, 1, 779.1, 0)" xlink:href="#linear-gradient-2"/><linearGradient id="linear-gradient-10" x1="527.91" y1="361.1" x2="521.36" y2="224.36" gradientTransform="matrix(-1, 0, 0, 1, 779.1, 0)" xlink:href="#linear-gradient-2"/><linearGradient id="linear-gradient-11" x1="512.81" y1="311.74" x2="509.41" y2="285.81" gradientTransform="matrix(-1, 0, 0, 1, 779.1, 0)" xlink:href="#linear-gradient-2"/><linearGradient id="linear-gradient-12" x1="231.12" y1="217.43" x2="258.77" y2="164.71" xlink:href="#linear-gradient"/><linearGradient id="linear-gradient-13" x1="538.71" y1="313.99" x2="593.4" y2="264.8" gradientTransform="translate(-454.15)" gradientUnits="userSpaceOnUse"><stop offset="0" stop-color="#92f3ff"/><stop offset="1" stop-color="#fff"/></linearGradient><linearGradient id="linear-gradient-14" x1="113.05" y1="363.37" x2="186.07" y2="363.37" gradientTransform="translate(1.03 -0.42) rotate(0.16)" xlink:href="#linear-gradient-3"/></defs><title>494641-PHESOC-447</title><g class="cls-1"><g id="OBJECTS"><path class="cls-2" d="M368.7,358.06a5.86,5.86,0,0,1,2.67,4.61c0,1.7-1.21,2.38-2.68,1.53l-24.27-14a5.88,5.88,0,0,1-2.67-4.62c0-1.69,1.21-2.38,2.68-1.53Z" transform="translate(-68.7 -88.93)"/><g class="cls-3"><path class="cls-2" d="M71.63,205a6.51,6.51,0,0,0-2.93,5.08l.2,69c0,4.4,3.14,6.2,6.95,4L117,259.41a6.48,6.48,0,0,0,2.92-5.08l-.19-69c0-4.4-3.14-6.2-7-4Z" transform="translate(-68.7 -88.93)"/></g><path class="cls-4" d="M77.94,230.06a1.92,1.92,0,0,0-.87,1.5v3.67c0,.55.39.78.87.5l33.53-19.36a1.9,1.9,0,0,0,.87-1.51V211.2c0-.55-.39-.78-.87-.5Z" transform="translate(-68.7 -88.93)"/><path class="cls-4" d="M78,238a1.91,1.91,0,0,0-.87,1.5v3.67c0,.55.39.77.88.5l33.52-19.36a1.91,1.91,0,0,0,.88-1.51v-3.66c0-.56-.4-.78-.88-.5Z" transform="translate(-68.7 -88.93)"/><path class="cls-5" d="M91.05,244A4.51,4.51,0,0,0,89,247.55v.84c0,1.32.93,1.85,2.07,1.19l10.85-6.27a4.53,4.53,0,0,0,2.06-3.57v-.84c0-1.31-.93-1.84-2.08-1.18Z" transform="translate(-68.7 -88.93)"/><path class="cls-6" d="M213.69,90.36l-.33-.19-.42-.22-.42-.2-.41-.17-.42-.16-.08,0h0l-.31-.09a3,3,0,0,0-.43-.12l-.42-.1L210,89l-.31,0h-.15a4,4,0,0,0-.49,0,4.87,4.87,0,0,0-.54,0,5.58,5.58,0,0,0-.59.09h0a3.9,3.9,0,0,0-.69.19,4.58,4.58,0,0,0-.84.38l-6.86,4A5.37,5.37,0,0,1,201,93h0a6.2,6.2,0,0,1,1.74-.09h0a9,9,0,0,1,1.92.42h0a11.94,11.94,0,0,1,2.08,1L394.38,202.91l6.86-4Z" transform="translate(-68.7 -88.93)"/><path class="cls-7" d="M415.62,218.39c0-.17,0-.34,0-.51s0-.33,0-.5l-.06-.51c0-.17,0-.34-.07-.52h0l-.09-.5c0-.18-.07-.36-.11-.54s-.08-.36-.13-.54-.09-.37-.14-.55-.08-.28-.13-.43v0a.29.29,0,0,0,0-.09l-.17-.53c-.06-.18-.12-.35-.19-.53s-.12-.34-.19-.51-.13-.33-.2-.5-.11-.25-.16-.38v0l0-.08c-.07-.17-.15-.34-.23-.5s-.17-.37-.26-.55-.21-.41-.32-.62l-.37-.65-.06-.12-.08-.13c-.25-.42-.5-.83-.77-1.23s-.43-.63-.65-.93l-.46-.6-.4-.5-.4-.46-.4-.45-.09-.09,0,0c-.11-.11-.21-.22-.32-.32s-.29-.29-.43-.43l-.46-.43-.46-.4-.23-.19-.05,0-.18-.14-.45-.35-.45-.32-.44-.29-.44-.27-.1-.06-6.86,4a15.79,15.79,0,0,1,2.06,1.42l.05,0a19.64,19.64,0,0,1,1.9,1.77l0,0a24.59,24.59,0,0,1,3.25,4.39l.06.11a25.93,25.93,0,0,1,1.22,2.41v0a21.49,21.49,0,0,1,.93,2.54v0a19.75,19.75,0,0,1,.6,2.56h0a16.64,16.64,0,0,1,.2,2.51l-.37,130.93a12,12,0,0,1-.21,2.23l0,.06a7.93,7.93,0,0,1-.58,1.82v0a6.36,6.36,0,0,1-.78,1.2c-.1.12-.19.25-.29.35a5,5,0,0,1-1.13.94l6.86-4a5,5,0,0,0,1.13-.93c.11-.11.19-.24.29-.36a5.72,5.72,0,0,0,.37-.46,6.85,6.85,0,0,0,.39-.71l0,0v0c.08-.17.15-.34.22-.53a4.27,4.27,0,0,0,.18-.54c0-.17.1-.35.14-.53a1.57,1.57,0,0,0,0-.23l0-.06c0-.07,0-.14,0-.22s.05-.32.07-.49,0-.33.06-.5l0-.49c0-.16,0-.33,0-.5v0l.37-130.93C415.63,218.7,415.63,218.54,415.62,218.39Z" transform="translate(-68.7 -88.93)"/><path class="cls-8" d="M398.46,205c5.71,3.3,10.33,11.29,10.31,17.86l-.37,130.93c0,6.57-4.67,9.21-10.38,5.91L206.39,249.05c-5.71-3.3-10.33-11.29-10.31-17.86l.37-130.93c0-6.57,4.67-9.22,10.38-5.92Z" transform="translate(-68.7 -88.93)"/><path class="cls-9" d="M386.63,204.69c5.25,3,9.5,10.38,9.48,16.42l-.34,120.36c0,6-4.29,8.47-9.55,5.44L219.09,250.47c-5.26-3-9.5-10.38-9.48-16.42L210,113.69c0-6,4.29-8.47,9.54-5.44Z" transform="translate(-68.7 -88.93)"/><path class="cls-9" d="M401.48,309.29h0a1.4,1.4,0,0,1-1.4-1.39v-42a1.4,1.4,0,0,1,1.4-1.4h0a1.39,1.39,0,0,1,1.4,1.4v42A1.39,1.39,0,0,1,401.48,309.29Z" transform="translate(-68.7 -88.93)"/><path class="cls-4" d="M202.61,175a6.52,6.52,0,0,1,2.95,5.11c0,1.88-1.34,2.64-3,1.7a6.5,6.5,0,0,1-3-5.12C199.64,174.81,201,174.06,202.61,175Z" transform="translate(-68.7 -88.93)"/><path class="cls-10" d="M317.52,192.77a30.3,30.3,0,0,1,1.1,5.16,23.89,23.89,0,0,1,.19,3c0,.3,0,.6,0,.89V202c0,.27,0,.54-.06.81,0,.05,0,.1,0,.15,0,.27-.06.53-.1.79s-.1.59-.14.84-.12.55-.18.79l0,.12c-.07.23-.13.46-.2.68,0,0,0,.07,0,.11-.07.23-.15.45-.23.66s-.2.46-.29.65a6.4,6.4,0,0,1-.33.65l-.06.11a5.74,5.74,0,0,1-.32.53.22.22,0,0,1-.05.08c-.12.18-.24.36-.37.52s-.26.33-.4.48l-.05.07c-.14.15-.27.29-.41.42l-.08.08c-.14.13-.28.26-.43.38l-.07.05-.45.34-.53.33-.09,0-.5.26-.1.05-.53.22-.33.11c-.06-6.39-4.55-14.1-10.08-17.3s-10.14-.64-10.16,5.78c0,0,.16.27.46.72l-.39-.55-.59-.87-.09-.14c-.18-.27-.35-.54-.52-.82l-.11-.18c-.17-.28-.35-.57-.51-.86s-.34-.6-.5-.89l-.09-.16q-.24-.43-.45-.87a1.19,1.19,0,0,1-.08-.16l-.42-.84c-.18-.38-.31-.68-.44-1a1.42,1.42,0,0,1-.08-.18c-.13-.3-.26-.6-.38-.91s-.27-.67-.38-1a.58.58,0,0,0,0-.14c-.11-.31-.22-.61-.32-.91l-.06-.18c-.21-.62-.4-1.25-.56-1.87a1.21,1.21,0,0,1-.05-.18c-.08-.31-.16-.61-.23-.91l0-.16c-.07-.28-.13-.57-.19-.86s-.13-.7-.18-1l0-.2c-.05-.3-.09-.6-.13-.9s-.07-.66-.09-.94c0-.05,0-.1,0-.15,0-.3,0-.59,0-.88a1.09,1.09,0,0,0,0-.18c0-.3,0-.6,0-.89a19.11,19.11,0,0,1,.2-2.8,13.58,13.58,0,0,1,1.12-3.88c.11-.22.22-.44.34-.65,2.7-4.85,8.41-6,15-2.17,5.92,3.42,11.1,10,14,17,.2.46.38.93.56,1.39C317.08,191.38,317.31,192.08,317.52,192.77Zm-15,.48c3.41,2,6.18.38,6.19-3.53a13.54,13.54,0,0,0-6.15-10.65c-3.4-2-6.18-.4-6.19,3.52a13.59,13.59,0,0,0,6.15,10.66" transform="translate(-68.7 -88.93)"/><path class="cls-11" d="M343.55,245.22a5.08,5.08,0,0,1,2.31,4l0,9.72c0,1.48-1,2.07-2.33,1.33l-89-51.36a5.08,5.08,0,0,1-2.31-4l0-9.72c0-1.47,1.05-2.06,2.33-1.32Z" transform="translate(-68.7 -88.93)"/><path class="cls-11" d="M343.49,266.39a5.08,5.08,0,0,1,2.31,4l0,9.73c0,1.47-1,2.06-2.33,1.32l-89-51.37a5.06,5.06,0,0,1-2.31-4l0-9.72c0-1.48,1.05-2.07,2.33-1.33Z" transform="translate(-68.7 -88.93)"/><path class="cls-12" d="M303.81,270.64a9.49,9.49,0,0,1,4.31,7.46v1.76c0,2.74-1.94,3.85-4.33,2.47l-22.64-13.07a9.5,9.5,0,0,1-4.32-7.47V260c0-2.73,1.95-3.84,4.34-2.46Z" transform="translate(-68.7 -88.93)"/><path class="cls-13" d="M221.72,269.39s-7.68,4.42-8.85,24.66c1,3.73,6.87,5.7,11.39,2.75S224.1,272.83,221.72,269.39Z" transform="translate(-68.7 -88.93)"/><path class="cls-14" d="M260.76,291.24s17.58-7.83,19.94-9.16,4.14-6.21,5-7.24,4.87-3.4,4.73-2.36-2.22,2.95-2.22,2.95a16.84,16.84,0,0,1,1.77,4.14c.3,1.62-1.92,4.87-3.1,5.76s-4,1.18-4,1.18-14.33,9.61-16.7,9.75S260.46,295.08,260.76,291.24Z" transform="translate(-68.7 -88.93)"/><ellipse class="cls-15" cx="171.01" cy="302.63" rx="35.54" ry="21.12"/><path class="cls-16" d="M225,387s-.45,3.35.16,4.72a3.43,3.43,0,0,0,4.71.91,48.31,48.31,0,0,0,4.57-4.26s4.87-2.59,5.33-4-1.22-2.59-2.59-2.28-5.33,2.74-7.15,2.74S225.58,385.34,225,387Z" transform="translate(-68.7 -88.93)"/><path class="cls-16" d="M220,315.73s4.25,70.31,4.79,72.35,6.05,3.21,7.08,0c.65-2.05,2.25-67.12,2.25-67.12Z" transform="translate(-68.7 -88.93)"/><path class="cls-16" d="M239.06,391.2a1.09,1.09,0,0,0-.37.82c0,1,0,3.12.58,4a4.09,4.09,0,0,0,5.29,1c2-1.07,8-5.61,9.27-6.61a3.63,3.63,0,0,0,1.23-1.94,1.1,1.1,0,0,0-.63-1.28,5.3,5.3,0,0,0-3.64-.42c-2,.68-4.54,2.86-7.28,2.74A6.71,6.71,0,0,0,239.06,391.2Z" transform="translate(-68.7 -88.93)"/><path class="cls-16" d="M248.46,316.49c-.31-2.92-3.8-3.87-7-2.87-6.15-.33-15.66-.07-16,4.7-.5,7.06,2.81,12.1,6,15.52,2.36,2.54,3.93,7.38,4.59,9.74.56,18.65,1.79,44.94,2.56,47.46,1.24,4,7.36,3.87,7.64-.08C247.49,377.62,248.46,316.49,248.46,316.49Z" transform="translate(-68.7 -88.93)"/><path class="cls-17" d="M248.48,318.69c-.72,3.61-11,5.42-17,4.45s-12.49-3.91-12.27-10.88c0,0-.91-27.85-.91-33.33a16.23,16.23,0,0,1,3.44-9.54s3.37-3.85,13.95-1.68c0,0,8.62,1.87,12.59,8.25,0,0,2.74,7,1.83,21.61S248.48,318.69,248.48,318.69Z" transform="translate(-68.7 -88.93)"/><path class="cls-18" d="M227.41,260s.91,5.32,0,7.76c-.15,1.22,5.17,5.33,9.89,4.26,2.74-.61,2.59-2,2.59-2s-2.28-3.8-2-7.46S230.61,259.21,227.41,260Z" transform="translate(-68.7 -88.93)"/><path class="cls-14" d="M245.22,249.24a12.56,12.56,0,1,1-12.56-12.55A12.56,12.56,0,0,1,245.22,249.24Z" transform="translate(-68.7 -88.93)"/><path class="cls-14" d="M245.22,250.08s.15,12.58-2.59,15.12-6.95-2.38-13.67-3.95c-6.73-1.73,5.45-14.81,5.45-14.81Z" transform="translate(-68.7 -88.93)"/><path class="cls-19" d="M244.2,273s2.75-.79,5.9,3.73,7.66,10.41,9.82,11.39,5.11-1,6.29-1,4.32,5.5,3.14,8.25-8.84,4.13-10.8,4.13-14.74-7.66-16.51-12S237.52,273.22,244.2,273Z" transform="translate(-68.7 -88.93)"/><path class="cls-20" d="M264.44,287.76A4,4,0,0,1,268,285.4c2.75-.19,5.89,5.11,5.69,8.06s-4.51,4.52-5.5,3.73S269.16,294.44,264.44,287.76Z" transform="translate(-68.7 -88.93)"/><path class="cls-21" d="M240.18,238.64s4.51,1,5.89,7.86c-.59,2.95-4.72.59-6.29,4.52a21.66,21.66,0,0,1-2.55,5.11l-1-.39s0-3.15-1.38-3.15-1.77,3.74-1,5.31a5.81,5.81,0,0,0,2.55,2.36s-2,3.34-2.94,3.73-4.52-.39-5.9-1-3.93-3.34-5.89-6.49-3.74-8.64-2.56-12.38a7.21,7.21,0,0,1,3.93-4.71,10,10,0,0,1,4.32-3.14A13.69,13.69,0,0,1,240.18,238.64Z" transform="translate(-68.7 -88.93)"/><path class="cls-22" d="M242.34,270.34l-3.28-1.83s-8.38-.79-11.39-2.75L226.1,268a9.57,9.57,0,0,0,7.46,4.59c5.37.52,7.86-1.57,7.86-1.57Z" transform="translate(-68.7 -88.93)"/><g class="cls-23"><path class="cls-2" d="M390.08,170.74v3.68a2.82,2.82,0,0,1-4.24,2.43l-17.36-10.07a2.81,2.81,0,0,1-1.4-2.45v-3.68a2.81,2.81,0,0,1,4.23-2.43l17.36,10.07A2.84,2.84,0,0,1,390.08,170.74Z" transform="translate(-68.7 -88.93)"/><path class="cls-2" d="M445,220.74v3.69a2.82,2.82,0,0,1-4.23,2.44L368.42,185.1a2.83,2.83,0,0,1-1.41-2.45V179a2.82,2.82,0,0,1,4.23-2.43l72.34,41.76A2.82,2.82,0,0,1,445,220.74Z" transform="translate(-68.7 -88.93)"/><g class="cls-24"><path class="cls-2" d="M415.07,240.18v3.69a2.82,2.82,0,0,1-4.23,2.43l-42.51-24.55a2.79,2.79,0,0,1-1.41-2.44v-3.69a2.82,2.82,0,0,1,4.23-2.44l42.51,24.55A2.79,2.79,0,0,1,415.07,240.18Z" transform="translate(-68.7 -88.93)"/></g><path class="cls-2" d="M433.73,232.59v3.69a2.82,2.82,0,0,1-4.23,2.44l-61.12-35.29A2.84,2.84,0,0,1,367,201v-3.69a2.82,2.82,0,0,1,4.23-2.43l61.12,35.28A2.82,2.82,0,0,1,433.73,232.59Z" transform="translate(-68.7 -88.93)"/></g><g class="cls-23"><path class="cls-2" d="M99.91,144.49v1.9a1.45,1.45,0,0,0,2.18,1.25l8.93-5.18a1.43,1.43,0,0,0,.72-1.26v-1.9a1.45,1.45,0,0,0-2.18-1.25l-8.93,5.19A1.42,1.42,0,0,0,99.91,144.49Z" transform="translate(-68.7 -88.93)"/><path class="cls-2" d="M71.65,170.22v1.9a1.45,1.45,0,0,0,2.18,1.25l37.22-21.49a1.44,1.44,0,0,0,.72-1.26v-1.89a1.46,1.46,0,0,0-2.18-1.26L72.37,169A1.45,1.45,0,0,0,71.65,170.22Z" transform="translate(-68.7 -88.93)"/><g class="cls-24"><path class="cls-2" d="M87.05,180.22v1.9a1.45,1.45,0,0,0,2.18,1.25l21.87-12.63a1.43,1.43,0,0,0,.72-1.26v-1.9a1.45,1.45,0,0,0-2.18-1.25L87.77,179A1.43,1.43,0,0,0,87.05,180.22Z" transform="translate(-68.7 -88.93)"/></g><path class="cls-2" d="M77.45,176.32v1.9a1.45,1.45,0,0,0,2.18,1.25l31.44-18.16a1.46,1.46,0,0,0,.73-1.26v-1.89a1.45,1.45,0,0,0-2.17-1.26L78.17,175.06A1.43,1.43,0,0,0,77.45,176.32Z" transform="translate(-68.7 -88.93)"/></g><path class="cls-25" d="M249.43,211.12a15,15,0,1,1-15-15A15,15,0,0,1,249.43,211.12Z" transform="translate(-68.7 -88.93)"/><polygon class="cls-4" points="164.43 129.09 158.17 124.51 160.45 121.39 163.7 123.77 170.28 115.37 173.32 117.75 164.43 129.09"/><g class="cls-26"><path class="cls-2" d="M214.87,144.69a14.11,14.11,0,0,1,6.39,11.06c0,4.09-2.9,5.73-6.43,3.69l-58.25-33.63a14.09,14.09,0,0,1-6.39-11.09c0-4.06,2.89-5.7,6.43-3.66Z" transform="translate(-68.7 -88.93)"/></g><g class="cls-26"><path class="cls-2" d="M435.69,322.76a9.79,9.79,0,0,1,4.44,7.69c0,2.84-2,4-4.47,2.56l-40.49-23.37a9.81,9.81,0,0,1-4.43-7.71c0-2.82,2-4,4.46-2.54Z" transform="translate(-68.7 -88.93)"/></g><path class="cls-27" d="M156.56,280.66c1.5.86,1.5,2.26,0,3.13L106.83,312.7a6,6,0,0,1-5.4,0L70.75,295c-1.49-.86-1.5-2.26,0-3.12L120.48,263a5.91,5.91,0,0,1,5.4,0Z" transform="translate(-68.7 -88.93)"/><g class="cls-28"><ellipse class="cls-29" cx="149.56" cy="363.37" rx="36.51" ry="21.15" transform="translate(-69.73 -88.51) rotate(-0.16)"/></g><path class="cls-30" d="M141.21,367.25s-6.57,1.72-9.15,1.72,0,2.57,4.29,2.85,8.29.58,9.15-.57-.19-4.38-.19-4.38Z" transform="translate(-68.7 -88.93)"/><path class="cls-30" d="M159.51,361.25s-6.58,1.71-9.15,1.71,0,2.57,4.29,2.86,8.29.57,9.15-.57-.19-4.39-.19-4.39Z" transform="translate(-68.7 -88.93)"/><path class="cls-31" d="M160.94,290.25s2.38,65.37,2.76,72.23a4.77,4.77,0,0,1-4.19.77s-7.72-42.89-8.86-53.94-3.05-14.87-3.05-14.87Z" transform="translate(-68.7 -88.93)"/><path class="cls-31" d="M136.54,294.06s-2.29,37.74,4.58,74.33c0,0,2.28,1.15,4.19-1.52,0,0,4.19-64,5.34-73.19S139.59,292.15,136.54,294.06Z" transform="translate(-68.7 -88.93)"/><path class="cls-31" d="M146.83,323s3.82-10.67,7.25-16.39,2.67-14.11,2.67-14.11l-13,1.15Z" transform="translate(-68.7 -88.93)"/><path class="cls-14" d="M133.63,256.75l-11.32-5.49s-3.44-3.44-4.29-4.12-6.53-2.06-7.56-1.89-2.91,1.72-2.4,2.06,5.32,2.92,5.49,3.95-1.71,2.4-1,3.09,2.23-.69,3.26-.69a16.8,16.8,0,0,1,4,1.37l11,6.35Z" transform="translate(-68.7 -88.93)"/><path class="cls-32" d="M157.79,245.74s-2.09-2.29-5.52,2.1S146,258.7,141.21,258.13s-12.58-4.39-12.58-4.39-3.43,2.29-2.86,5.72c0,0,11.06,8.2,18.49,7.82s15.44-8,17.16-13.35S157.79,245.74,157.79,245.74Z" transform="translate(-68.7 -88.93)"/><path class="cls-32" d="M134.87,294c.68,3.41,10.42,5.12,16.12,4.21s11.83-3.7,11.63-10.31c0,0,.86-26.39.86-31.58a15.34,15.34,0,0,0-3.26-9s-3.19-3.65-13.22-1.6c0,0-8.17,1.78-11.92,7.82,0,0-2.6,6.63-1.73,20.48S134.87,294,134.87,294Z" transform="translate(-68.7 -88.93)"/><path class="cls-18" d="M154.83,238.35s-.86,5.05,0,7.35c.15,1.16-4.9,5.05-9.37,4-2.6-.58-2.45-1.87-2.45-1.87s2.16-3.61,1.87-7.07S151.8,237.63,154.83,238.35Z" transform="translate(-68.7 -88.93)"/><path class="cls-14" d="M138,228.18a11.9,11.9,0,1,0,11.9-11.89A11.9,11.9,0,0,0,138,228.18Z" transform="translate(-68.7 -88.93)"/><path class="cls-14" d="M138,229s-.14,11.91,2.45,14.32,6.58-2.25,13-3.75-5.16-14-5.16-14Z" transform="translate(-68.7 -88.93)"/><path class="cls-14" d="M123.24,268s-16.66-7.42-18.9-8.68-3.92-5.88-4.76-6.86-4.61-3.22-4.48-2.24,2.1,2.8,2.1,2.8a16.18,16.18,0,0,0-1.68,3.92c-.28,1.54,1.82,4.62,2.94,5.46a10.07,10.07,0,0,0,3.78,1.12s13.58,9.1,15.82,9.24S123.52,271.61,123.24,268Z" transform="translate(-68.7 -88.93)"/><path class="cls-32" d="M138.07,252.89s-2.1-2.29-5.53,2.09-6.29,10.87-11.06,10.3-12.58-4.39-12.58-4.39-3.43,2.29-2.86,5.72c0,0,11.06,8.2,18.49,7.81s15.44-8,17.16-13.34S138.07,252.89,138.07,252.89Z" transform="translate(-68.7 -88.93)"/><path class="cls-21" d="M142.74,218.14s-4.28.93-5.59,7.45c.56,2.79,4.47.56,6,4.28a20.57,20.57,0,0,0,2.42,4.84l.93-.38s0-3,1.3-3,1.68,3.53.93,5a5.51,5.51,0,0,1-2.42,2.24s1.86,3.16,2.79,3.53,4.29-.37,5.59-.93,3.72-3.16,5.58-6.14,3.54-8.19,2.42-11.73a6.84,6.84,0,0,0-3.72-4.46,9.45,9.45,0,0,0-4.1-3A13,13,0,0,0,142.74,218.14Z" transform="translate(-68.7 -88.93)"/><path class="cls-21" d="M141.78,226a9.39,9.39,0,0,1,1.43,8.29c-1.43,4.86.57,4.86,2.58,11.15s-3.72,13.73,1.71,22.88,20,8,26.59-1.15-3.72-15.72-4-24,6.29-13.16-1.15-18.87-10.57-12-19.72-9.44S137.78,222,141.78,226Z" transform="translate(-68.7 -88.93)"/></g></g></svg>