<?xml version="1.0" encoding="iso-8859-1"?>
<!-- Generator: Adobe Illustrator 19.0.0, SVG Export Plug-In . SVG Version: 6.00 Build 0)  -->
<svg version="1.1" id="Capa_1" xmlns="http://www.w3.org/2000/svg" xmlns:xlink="http://www.w3.org/1999/xlink" x="0px" y="0px"
	 viewBox="0 0 512 512" style="enable-background:new 0 0 512 512;" xml:space="preserve">
<path style="fill:#FF5050;" d="M284.407,214.141c-17.22,0.019-24.257,13.894-24.784,14.503c-1.993,2.284-4.643,2.753-7.332-0.052
	c-14.475-25.469-53.143-14.783-53.115,14.047c0.033,31.782,28.058,56.875,55.591,69.87c0.412,0.194,0.856,0.292,1.3,0.292
	c0.446,0,0.893-0.098,1.306-0.294c4.378-2.077,15.793-7.945,27.212-17.54c18.757-15.762,28.258-33.406,28.239-52.444
	C312.806,226.873,300.06,214.141,284.407,214.141z"/>
<path style="fill:#EE3E3E;" d="M238.061,216.217c-19.022-7.507-38.904,6.709-38.885,26.422c0.033,31.782,28.058,56.875,55.59,69.87
	c0.412,0.194,0.856,0.292,1.3,0.292c0.446,0,0.893-0.098,1.306-0.294c1.902-0.902,5.133-2.522,9.114-4.849
	C213.123,277.043,209.341,227.678,238.061,216.217z"/>
<path style="fill:#E59770;" d="M353.481,339.354l-67.46,27.814c0.827-2.438,2.118-4.762,3.907-6.829l38.748-44.769
	c7.415-8.566,20.37-9.5,28.936-2.086c6.558,5.676,8.625,14.594,5.916,22.31C358.275,336.75,354.19,339.001,353.481,339.354z"/>
<path style="fill:#DD855F;" d="M308.484,338.9l-18.556,21.439c-1.789,2.067-3.08,4.391-3.907,6.829l67.46-27.814
	c0.709-0.353,4.794-2.604,10.047-3.56c2.167-6.172,1.27-13.11-2.53-18.546L308.484,338.9z"/>
<path style="fill:#F0A479;" d="M169.151,427.143c-7.78,1.048-15.097,4.326-21.039,9.456l-9.357,8.079l-55.47-64.241
	c13.734-11.763,28.476-22.308,44.15-31.329c17.528-10.088,24.574-11.124,61.929-15.127l0.002,0.001
	c12.226-1.074,18.314,1.585,68.54,15.832c18.123,5.139,14.128,22.618,14.128,22.618l81.362-33.546
	c1.596-0.793,20.486-11.325,30.938,5.722c9.161,16.081-6.35,27.722-9.465,29.751l-103.661,59.338c0,0-0.006,0.003-0.013,0.008
	c-15.354,9.995-31.361,7.966-38.407,6.328l-40.246-11.416C183.1,425.94,176.808,426.112,169.151,427.143z"/>
<g>
	<path style="fill:#E59770;" d="M100.746,366.576c-5.984,4.405-11.813,9.024-17.461,13.862l55.471,64.241l9.357-8.08
		c2.545-2.197,5.353-4.032,8.331-5.52L100.746,366.576z"/>
	<path style="fill:#E59770;" d="M287.834,373.289c0.218-0.96,0.879-4.007,1.442-8l-17.212,7.097
		c-1.076,2.752-3.811,6.81-10.472,5.888c-16.484-2.269-55.735-7.516-56.129-7.569c-4.234-0.566-8.117,2.405-8.682,6.635
		c-0.565,4.229,2.405,8.117,6.635,8.682c0.394,0.052,39.615,5.296,56.069,7.56c1.423,0.196,2.787,0.289,4.098,0.289
		C278.377,393.87,286.131,382.052,287.834,373.289z"/>
</g>
<path style="fill:#FFC850;" d="M146.844,452.459l-69.679-80.696c-2.916-3.377-8.019-3.751-11.396-0.835l-54.051,46.671
	c-3.183,2.749-3.517,7.565-0.743,10.727l71.236,81.181c2.529,2.882,6.955,3.377,9.883,0.901c0.022-0.019,0.044-0.038,0.066-0.057
	l53.848-46.496C149.387,460.938,149.761,455.836,146.844,452.459z"/>
<path style="fill:#F9B938;" d="M22.365,408.407l-10.646,9.192c-3.183,2.749-3.517,7.565-0.743,10.727l71.236,81.181
	c2.529,2.882,6.955,3.377,9.883,0.901c0.022-0.019,0.044-0.038,0.066-0.056l11.185-9.658L22.365,408.407z"/>
<path style="fill:#E59770;" d="M225.979,144.832c-1.722,5.077-0.175,2.517-42.655,51.598c-7.415,8.566-20.37,9.5-28.936,2.086
	c-6.558-5.676-8.625-14.594-5.916-22.31C152.334,175.503,144.635,178.371,225.979,144.832z"/>
<path style="fill:#DD855F;" d="M204.486,171.979c19.16-22.138,19.821-22.22,21.493-27.147
	c-81.322,33.53-73.639,30.671-77.507,31.374c-2.074,5.906-1.339,12.512,2.057,17.834
	C153.624,193.252,148.226,195.176,204.486,171.979z"/>
<path style="fill:#F0A479;" d="M363.888,75.401l9.357-8.079l55.47,64.241c-13.734,11.763-28.476,22.308-44.15,31.329
	c-17.528,10.088-24.574,11.124-61.929,15.127l-0.002-0.001c-12.226,1.074-18.314-1.585-68.54-15.832
	c-18.123-5.139-14.128-22.618-14.128-22.618l-81.362,33.546c-1.596,0.793-20.486,11.325-30.938-5.722
	c-9.161-16.081,6.35-27.722,9.465-29.751l103.661-59.338c0,0,0.006-0.003,0.013-0.008c15.354-9.995,31.361-7.966,38.407-6.328
	l40.246,11.416C334.888,87.758,351.888,85.763,363.888,75.401z"/>
<g>
	<path style="fill:#E59770;" d="M340.062,87.58c15.296,4.337,32.077,2.407,44.047-7.676l-10.865-12.583l-9.357,8.079
		c-8.673,7.489-19.309,10.386-31.015,10.14L340.062,87.58z"/>
	<path style="fill:#E59770;" d="M157.735,141.838L261.396,82.5c0,0,0.006-0.003,0.013-0.008c9.882-6.433,20.031-7.883,27.891-7.664
		l-10.087-2.861c-7.046-1.638-23.054-3.667-38.408,6.328c-0.007,0.004-0.013,0.008-0.013,0.008l-103.661,59.338
		c-3.115,2.029-18.627,13.67-9.465,29.751c6.79,11.075,17.138,10.508,23.995,8.535C140.801,165.085,144.954,150.162,157.735,141.838
		z"/>
	<path style="fill:#E59770;" d="M224.166,138.711c-0.218,0.96-0.879,4.007-1.442,8l17.212-7.097
		c1.076-2.752,3.811-6.81,10.472-5.888c16.484,2.269,55.735,7.516,56.129,7.569c4.234,0.566,8.117-2.405,8.682-6.635
		c0.565-4.229-2.405-8.117-6.635-8.682c-0.394-0.052-39.616-5.296-56.069-7.56c-1.423-0.196-2.787-0.289-4.098-0.289
		C233.623,118.13,225.869,129.948,224.166,138.711z"/>
</g>
<path style="fill:#00C3FF;" d="M365.156,59.541l69.679,80.696c2.916,3.377,8.019,3.751,11.396,0.835l54.051-46.671
	c3.183-2.749,3.517-7.565,0.743-10.727l-71.238-81.18c-2.529-2.882-6.954-3.377-9.883-0.901c-0.022,0.019-0.044,0.038-0.066,0.057
	L365.99,48.146C362.613,51.062,362.239,56.164,365.156,59.541z"/>
<path style="fill:#06B0F2;" d="M376.824,38.791l-10.833,9.354c-3.377,2.916-3.751,8.018-0.835,11.396l69.679,80.696
	c2.916,3.377,8.018,3.751,11.396,0.835l10.834-9.355L376.824,38.791z"/>
<g>
</g>
<g>
</g>
<g>
</g>
<g>
</g>
<g>
</g>
<g>
</g>
<g>
</g>
<g>
</g>
<g>
</g>
<g>
</g>
<g>
</g>
<g>
</g>
<g>
</g>
<g>
</g>
<g>
</g>
</svg>
