<svg height="512" viewBox="0 0 512 512" width="512" xmlns="http://www.w3.org/2000/svg"><g id="Flat"><path d="m28.7845 431.98063a21.388 21.388 0 0 0 35.04123-2.35694l32.17427-53.62369.44787-.26872a97.54014 97.54014 0 0 1 82.99027-8.21766h.00011a210.90475 210.90475 0 0 0 137.62886 1.464l.00017-.00006a196.52921 196.52921 0 0 0 127.08472-133.39006l43.848-156.39703-50.15218 28.52779a205.20257 205.20257 0 0 1 -163.25155 17.31214l-.00016-.00005a133.88842 133.88842 0 0 0 -121.95122 21.55051l-.00011.00008a133.88846 133.88846 0 0 0 -52.04908 98.69639l-3.476 62.56728a97.54021 97.54021 0 0 1 -10.1474 38.21072l-6.9723 13.94467-48.59838 42.52358a21.388 21.388 0 0 0 -2.61712 29.45705z" fill="#a0cc00"/><g fill="#85b200"><path d="m271.61408 320.46307a7.65416 7.65416 0 0 1 -10.4031 1.26037 111.95949 111.95949 0 0 0 -95.38627-17.56524l-35.67471 9.71693a7.65023 7.65023 0 0 1 -9.39291-5.37486l-.18335-.67458a7.65023 7.65023 0 0 1 5.37195-9.3878l35.66906-9.71523a127.96315 127.96315 0 0 1 109.10493 20.1328 7.6523 7.6523 0 0 1 1.34218 11.07031z"/><path d="m359.73216 264.42816a7.6259 7.6259 0 0 1 -10.23016 2.61455 181.3185 181.3185 0 0 0 -125.939-20.3972l-24.31042 4.86249q-.24324.04864-.48294.113l-22.80688 6.12223a7.65023 7.65023 0 0 1 -9.372-5.40515l-.18144-.67589a7.65022 7.65022 0 0 1 5.40522-9.37215l23.05763-6.18954.98613-.23072 24.567-4.9137a197.24316 197.24316 0 0 1 136.93583 22.14892 7.67214 7.67214 0 0 1 2.74217 10.72936z"/><path d="m383.2417 229.041a176.86618 176.86618 0 0 1 -25.02637-1.78614l-23.34668-3.335-45.49814-6.86786a7.65023 7.65023 0 0 1 -6.4227-8.70622l.10433-.69124a7.65023 7.65023 0 0 1 8.70638-6.42285l45.43533 6.85816 23.28415 3.32515a159.50288 159.50288 0 0 0 54.51641-1.57606 7.62243 7.62243 0 0 1 8.87818 5.65155l.16916.67659a7.67023 7.67023 0 0 1 -5.94343 9.36819 175.24543 175.24543 0 0 1 -34.85662 3.50573z"/><path d="m148.94506 264.20013a7.65023 7.65023 0 0 1 -10.58531-2.186l-2.9828-4.52589a59.282 59.282 0 0 1 -9.13711-43.50339 7.65955 7.65955 0 0 1 9.95975-5.91835l.66849.22288a7.70865 7.70865 0 0 1 5.09273 8.69786 43.40309 43.40309 0 0 0 6.72815 31.625l1.9668 2.94922 1.0849 1.653a7.65024 7.65024 0 0 1 -2.19814 10.59353z"/><path d="m208.34977 235.10938h-.69954a7.65023 7.65023 0 0 1 -7.65023-7.65023v-30.61442a102.89324 102.89324 0 0 1 13.01233-50.1881 7.66942 7.66942 0 0 1 10.954-2.67908l.58542.39028a7.66678 7.66678 0 0 1 2.40934 10.12779 86.95574 86.95574 0 0 0 -10.96109 42.34911v30.61442a7.65023 7.65023 0 0 1 -7.65023 7.65023z"/><path d="m268.30718 204.18587-.66332-.22107a7.65023 7.65023 0 0 1 -4.83888-9.67691l1.60566-4.81719a58.926 58.926 0 0 1 28.91644-33.6346 7.65531 7.65531 0 0 1 10.75041 4.39639l.221.66291a7.71611 7.71611 0 0 1 -3.86439 9.27556 42.83341 42.83341 0 0 0 -20.8447 24.35931l-1.60577 4.81712a7.65024 7.65024 0 0 1 -9.67645 4.83848z"/><path d="m488 79.18994-49.42993 68.83006a182.32951 182.32951 0 0 1 -148.12007 75.98 182.35353 182.35353 0 0 0 -156.37 88.54l-38.08 63.46-32.17 53.62012a21.39077 21.39077 0 1 1 -32.43-27.10012l48.6-42.52 33.15-63.29a195.38139 195.38139 0 0 1 173.05-104.71 195.38843 195.38843 0 0 0 129.17-48.79z"/></g><path d="m96 376-32.17 53.62012a21.39077 21.39077 0 1 1 -32.43-27.10012l48.6-42.52z" fill="#719600"/></g></svg>